<svg 
width="21" 
height="20" 
viewBox="0 0 21 20" 
fill="none" 
xmlns="http://www.w3.org/2000/svg">

<path d="M10.7168 0C8.00013 0 7.66096 0.0125 6.5943 0.06C5.5293 0.11 4.8043 0.2775 4.1668 0.525C3.5093 0.78 2.95096 1.1225 2.39513 1.67833C1.8393 2.23417 1.49596 2.79167 1.2418 3.45C0.994297 4.0875 0.825964 4.8125 0.776797 5.8775C0.726797 6.94417 0.716797 7.28333 0.716797 10C0.716797 12.7167 0.729297 13.0558 0.776797 14.1225C0.826797 15.1867 0.994297 15.9125 1.2418 16.55C1.4968 17.2067 1.8393 17.7658 2.39513 18.3217C2.95096 18.8767 3.50846 19.2208 4.1668 19.475C4.80513 19.7217 5.53013 19.8908 6.5943 19.94C7.66096 19.99 8.00013 20 10.7168 20C13.4335 20 13.7726 19.9875 14.8393 19.94C15.9035 19.89 16.6293 19.7217 17.2668 19.475C17.9235 19.22 18.4826 18.8767 19.0385 18.3217C19.5935 17.7658 19.9376 17.2092 20.1918 16.55C20.4385 15.9125 20.6076 15.1867 20.6568 14.1225C20.7068 13.0558 20.7168 12.7167 20.7168 10C20.7168 7.28333 20.7043 6.94417 20.6568 5.8775C20.6068 4.81333 20.4385 4.08667 20.1918 3.45C19.9368 2.7925 19.5935 2.23417 19.0385 1.67833C18.4826 1.1225 17.926 0.779167 17.2668 0.525C16.6293 0.2775 15.9035 0.109167 14.8393 0.06C13.7726 0.01 13.4335 0 10.7168 0V0ZM10.7168 1.8C13.386 1.8 13.7043 1.81333 14.7585 1.85917C15.7335 1.905 16.2626 2.06667 16.6143 2.205C17.0826 2.38583 17.4143 2.6025 17.766 2.95167C18.1151 3.30167 18.3318 3.63417 18.5126 4.1025C18.6493 4.45417 18.8126 4.98333 18.8568 5.95833C18.9043 7.01333 18.9151 7.33 18.9151 10C18.9151 12.67 18.9026 12.9875 18.8535 14.0417C18.8026 15.0167 18.6401 15.5458 18.5026 15.8975C18.316 16.3658 18.1035 16.6975 17.7535 17.0492C17.4043 17.3983 17.0668 17.615 16.6035 17.7958C16.2535 17.9325 15.716 18.0958 14.741 18.14C13.6793 18.1875 13.3668 18.1983 10.6918 18.1983C8.01596 18.1983 7.70346 18.1858 6.64263 18.1367C5.6668 18.0858 5.1293 17.9233 4.7793 17.7858C4.30513 17.5992 3.9793 17.3867 3.63013 17.0367C3.2793 16.6875 3.05513 16.35 2.88013 15.8867C2.74263 15.5367 2.58096 14.9992 2.53013 14.0242C2.49263 12.9742 2.4793 12.65 2.4793 9.9875C2.4793 7.32417 2.49263 6.99917 2.53013 5.93667C2.58096 4.96167 2.74263 4.425 2.88013 4.075C3.05513 3.6 3.2793 3.275 3.63013 2.92417C3.9793 2.575 4.30513 2.35 4.7793 2.17583C5.1293 2.0375 5.65513 1.875 6.63013 1.825C7.69263 1.7875 8.00513 1.775 10.6793 1.775L10.7168 1.8V1.8ZM10.7168 4.865C7.8793 4.865 5.5818 7.165 5.5818 10C5.5818 12.8375 7.8818 15.135 10.7168 15.135C13.5543 15.135 15.8518 12.835 15.8518 10C15.8518 7.1625 13.5518 4.865 10.7168 4.865ZM10.7168 13.3333C8.87513 13.3333 7.38346 11.8417 7.38346 10C7.38346 8.15833 8.87513 6.66667 10.7168 6.66667C12.5585 6.66667 14.0501 8.15833 14.0501 10C14.0501 11.8417 12.5585 13.3333 10.7168 13.3333ZM17.2551 4.6625C17.2551 5.325 16.7168 5.8625 16.0551 5.8625C15.3926 5.8625 14.8551 5.32417 14.8551 4.6625C14.8551 4.00083 15.3935 3.46333 16.0551 3.46333C16.716 3.4625 17.2551 4.00083 17.2551 4.6625Z" 

fill="white"
/>
</svg>
