<svg width="44" height="45" viewBox="0 0 44 45" fill="none" xmlns="http://www.w3.org/2000/svg">
<path d="M22.1055 0.800537C16.158 0.800537 15.4155 0.827903 13.0803 0.931893C10.7487 1.04136 9.16151 1.40806 7.76585 1.9499C6.32641 2.50816 5.10407 3.25799 3.88721 4.47485C2.67034 5.69172 1.91869 6.91224 1.36225 8.3535C0.820412 9.74916 0.451885 11.3364 0.344247 13.6679C0.234783 16.0032 0.212891 16.7457 0.212891 22.6932C0.212891 28.6407 0.240256 29.3832 0.344247 31.7184C0.45371 34.0482 0.820412 35.6372 1.36225 37.0329C1.92052 38.4705 2.67034 39.6947 3.88721 40.9115C5.10407 42.1266 6.32459 42.88 7.76585 43.4365C9.16334 43.9765 10.7506 44.3468 13.0803 44.4545C15.4155 44.5639 16.158 44.5858 22.1055 44.5858C28.053 44.5858 28.7956 44.5585 31.1308 44.4545C33.4605 44.345 35.0496 43.9765 36.4452 43.4365C37.8828 42.8782 39.107 42.1266 40.3239 40.9115C41.5389 39.6947 42.2924 38.476 42.8488 37.0329C43.3888 35.6372 43.7592 34.0482 43.8668 31.7184C43.9763 29.3832 43.9982 28.6407 43.9982 22.6932C43.9982 16.7457 43.9708 16.0032 43.8668 13.6679C43.7574 11.3382 43.3888 9.74733 42.8488 8.3535C42.2906 6.91406 41.5389 5.69172 40.3239 4.47485C39.107 3.25799 37.8883 2.50634 36.4452 1.9499C35.0496 1.40806 33.4605 1.03953 31.1308 0.931893C28.7956 0.82243 28.053 0.800537 22.1055 0.800537V0.800537ZM22.1055 4.74121C27.9491 4.74121 28.646 4.7704 30.9538 4.87075C33.0884 4.97109 34.2468 5.32502 35.0167 5.62787C36.042 6.02376 36.7681 6.4981 37.538 7.26252C38.3025 8.02876 38.7768 8.75669 39.1727 9.782C39.4719 10.5519 39.8295 11.7104 39.9262 13.8449C40.0301 16.1546 40.0539 16.8479 40.0539 22.6932C40.0539 28.5385 40.0265 29.2336 39.9189 31.5415C39.8076 33.676 39.4518 34.8345 39.1508 35.6044C38.7421 36.6297 38.2769 37.3558 37.5107 38.1257C36.7463 38.8901 36.0074 39.3644 34.993 39.7603C34.2268 40.0595 33.05 40.4171 30.9155 40.5138C28.5912 40.6178 27.9071 40.6415 22.0508 40.6415C16.1927 40.6415 15.5086 40.6141 13.1861 40.5065C11.0498 40.3952 9.87302 40.0395 9.10678 39.7384C8.0687 39.3298 7.35537 38.8646 6.59095 38.0983C5.82288 37.3339 5.33212 36.595 4.949 35.5807C4.64798 34.8144 4.29405 33.6377 4.18276 31.5032C4.10066 29.2044 4.07147 28.4947 4.07147 22.6658C4.07147 16.8351 4.10066 16.1236 4.18276 13.7975C4.29405 11.6629 4.64798 10.488 4.949 9.72179C5.33212 8.68189 5.82288 7.97038 6.59095 7.20231C7.35537 6.43789 8.0687 5.94531 9.10678 5.56401C9.87302 5.26116 11.0242 4.90541 13.1587 4.79595C15.4848 4.71385 16.169 4.68648 22.0234 4.68648L22.1055 4.74121V4.74121ZM22.1055 11.4513C15.8935 11.4513 10.8637 16.4866 10.8637 22.6932C10.8637 28.9052 15.899 33.9351 22.1055 33.9351C28.3176 33.9351 33.3474 28.8998 33.3474 22.6932C33.3474 16.4811 28.3121 11.4513 22.1055 11.4513ZM22.1055 29.9907C18.0736 29.9907 14.808 26.7251 14.808 22.6932C14.808 18.6613 18.0736 15.3956 22.1055 15.3956C26.1374 15.3956 29.4031 18.6613 29.4031 22.6932C29.4031 26.7251 26.1374 29.9907 22.1055 29.9907ZM36.4197 11.008C36.4197 12.4584 35.2411 13.6351 33.7926 13.6351C32.3422 13.6351 31.1654 12.4565 31.1654 11.008C31.1654 9.55942 32.344 8.38269 33.7926 8.38269C35.2393 8.38087 36.4197 9.55942 36.4197 11.008Z" fill="#E13434"/>
</svg>
