<svg width="43" height="43" viewBox="0 0 43 43" fill="none" xmlns="http://www.w3.org/2000/svg">
<path d="M36.2607 36.2341H30.0351V26.458C30.0351 24.1268 29.9878 21.1267 26.791 21.1267C23.545 21.1267 23.0493 23.6633 23.0493 26.286V36.2341H16.8237V16.1307H22.804V18.8709H22.8846C23.7202 17.291 25.7522 15.6233 28.7879 15.6233C35.0959 15.6233 36.2625 19.7838 36.2625 25.1993V36.2341H36.2607ZM9.79228 13.3799C7.78831 13.3799 6.17849 11.7543 6.17849 9.75483C6.17849 7.75712 7.79007 6.13333 9.79228 6.13333C11.7892 6.13333 13.4078 7.75712 13.4078 9.75483C13.4078 11.7543 11.7875 13.3799 9.79228 13.3799ZM12.9138 36.2341H6.67072V16.1307H12.9138V36.2341ZM39.3753 0.331543H3.54565C1.83072 0.331543 0.443359 1.69027 0.443359 3.36673V39.4273C0.443359 41.1055 1.83072 42.4625 3.54565 42.4625H39.37C41.0832 42.4625 42.4846 41.1055 42.4846 39.4273V3.36673C42.4846 1.69027 41.0832 0.331543 39.37 0.331543L39.3753 0.331543Z" fill="#E13434"/>
</svg>
