<svg width="45" height="46" viewBox="0 0 45 46" fill="none" xmlns="http://www.w3.org/2000/svg">
<mask id="mask0_2286_8963" style="mask-type:luminance" maskUnits="userSpaceOnUse" x="0" y="0" width="45" height="46">
<path d="M0.373047 0.800495H44.772V45.1995H0.373047V0.800495Z" fill="white"/>
</mask>
<g mask="url(#mask0_2286_8963)">
<path d="M3.05076 11.5591C2.69811 11.3001 2.40893 10.9491 2.20893 10.5372C2.00892 10.1253 1.90428 9.66538 1.9043 9.19819V9.19582C1.9043 7.51859 3.13755 6.1589 4.65879 6.1589H40.4869C42.008 6.1589 43.2413 7.51859 43.2413 9.19582V9.19819C43.2413 10.1469 42.8114 11.0327 42.0949 11.5591C38.5985 14.1297 28.063 21.8734 24.1016 24.7859C23.6489 25.1188 23.1169 25.2964 22.5728 25.2964C22.0287 25.2964 21.4968 25.1188 21.0441 24.7859C17.0826 21.8734 6.54718 14.1297 3.05076 11.5591Z" stroke="#E13434" stroke-width="3.062" stroke-miterlimit="10" stroke-linecap="round" stroke-linejoin="round"/>
<path d="M1.9043 9.22084V36.7788C1.9042 37.1809 1.97547 37.5791 2.11402 37.9506C2.25257 38.322 2.45569 38.6595 2.71174 38.9437C2.96748 39.2282 3.27119 39.4538 3.60551 39.6078C3.93983 39.7617 4.29819 39.8409 4.66008 39.8408H40.4855C40.8474 39.8409 41.2057 39.7617 41.5401 39.6078C41.8744 39.4538 42.1781 39.2282 42.4338 38.9437C42.6899 38.6595 42.893 38.322 43.0315 37.9506C43.1701 37.5791 43.2414 37.1809 43.2413 36.7788V9.22084" stroke="#E13434" stroke-width="3.062" stroke-miterlimit="10" stroke-linecap="round" stroke-linejoin="round"/>
</g>
</svg>
