<svg width="25" height="24" viewBox="0 0 25 24" fill="none" xmlns="http://www.w3.org/2000/svg">
<mask id="mask0_2110_53" style="mask-type:luminance" maskUnits="userSpaceOnUse" x="0" y="0" width="25" height="25">
<path d="M0.822266 0.00585938H24.8223V24.0059H0.822266V0.00585938Z" fill="white"/>
</mask>
<g mask="url(#mask0_2110_53)">
<path d="M3.55469 6.53961C3.38407 6.41781 3.24416 6.25273 3.14739 6.05904C3.05062 5.86534 2.99999 5.64903 3 5.42932V5.42821C3 4.63944 3.59668 4 4.3327 4H21.6673C22.4033 4 23 4.63944 23 5.42821V5.42932C23 5.87549 22.792 6.29204 22.4454 6.53961C20.7537 7.74853 15.6563 11.3902 13.7397 12.7599C13.5206 12.9165 13.2633 13 13 13C12.7368 13 12.4794 12.9165 12.2604 12.7599C10.3437 11.3902 5.24636 7.74853 3.55469 6.53961Z" stroke="white" stroke-width="2.53165" stroke-miterlimit="10" stroke-linecap="round" stroke-linejoin="round"/>
<path d="M3.00586 5.45818V18.5458C3.00581 18.7368 3.03966 18.9259 3.10546 19.1023C3.17126 19.2787 3.26772 19.439 3.38933 19.5739C3.51078 19.709 3.65502 19.8162 3.81379 19.8893C3.97256 19.9624 4.14275 20 4.31462 20L21.9992 20C22.171 20 22.3412 19.9624 22.5 19.8893C22.6588 19.8162 22.803 19.709 22.9245 19.5739C23.0461 19.439 23.1425 19.2787 23.2083 19.1023C23.2741 18.9259 23.308 18.7368 23.3079 18.5458L23 5.5" stroke="white" stroke-width="2.53165" stroke-miterlimit="10" stroke-linecap="round" stroke-linejoin="round"/>
</g>
</svg>
