<svg width="37" height="43" viewBox="0 0 37 43" fill="none" xmlns="http://www.w3.org/2000/svg">
<path d="M31.4092 3.24381C29.4044 0.972875 25.7763 0 21.1349 0H7.66513C6.71645 0 5.9102 0.685313 5.7597 1.6125L0.150969 36.9021C0.0407815 37.5981 0.583657 38.227 1.29316 38.227H9.60828L11.6965 25.0851L11.632 25.499C11.7798 24.5718 12.5833 23.8865 13.532 23.8865H17.4827C25.2468 23.8865 31.3233 20.7582 33.0997 11.7094C33.1535 11.4407 33.2368 10.9247 33.2368 10.9247C33.7419 7.57606 33.234 5.30513 31.4092 3.24381Z" fill="#03487A"/>
<path d="M35.3419 12.6387C33.4123 21.5477 27.2553 26.2616 17.4835 26.2616H13.9414L11.2969 42.9994H17.0428C17.8732 42.9994 18.58 42.4 18.709 41.5857L18.7762 41.231L20.0984 32.9239L20.1844 32.467C20.3134 31.6527 21.0202 31.0534 21.848 31.0534H22.8988C29.6901 31.0534 35.006 28.3175 36.5594 20.4029C37.1829 17.2262 36.8819 14.5629 35.3419 12.6387Z" fill="#0D90EE"/>
</svg>
