<svg width="43" height="28" viewBox="0 0 43 28" fill="none" xmlns="http://www.w3.org/2000/svg">
<g clip-path="url(#clip0_2129_604)">
<path d="M38.3536 35.2807H4.64637C2.08029 35.2807 0 33.2217 0 30.6819V-2.68047C0 -5.22029 2.08029 -7.2793 4.64637 -7.2793H38.3535C40.9197 -7.2793 42.9999 -5.22029 42.9999 -2.68047V30.6818C43 33.2217 40.9197 35.2807 38.3536 35.2807Z" fill="#7F61BE"/>
<path fill-rule="evenodd" clip-rule="evenodd" d="M37.9674 14.2397C37.9674 11.9253 36.8348 10.099 34.6699 10.099C32.496 10.099 31.1807 11.9253 31.1807 14.2217C31.1807 16.9429 32.7335 18.3171 34.9622 18.3171C36.0492 18.3171 36.8712 18.073 37.4924 17.7294V15.9213C36.8712 16.2287 36.1588 16.4186 35.2545 16.4186C34.3685 16.4186 33.5829 16.1111 33.4825 15.0444H37.9491C37.9491 14.9268 37.9674 14.4567 37.9674 14.2397ZM33.4551 13.3809C33.4551 12.3593 34.0853 11.9343 34.6608 11.9343C35.218 11.9343 35.8117 12.3593 35.8117 13.3809H33.4551ZM27.6548 10.0991C26.7596 10.0991 26.1841 10.5149 25.8645 10.8042L25.7458 10.2437H23.7362V20.7853L26.0197 20.3061L26.0289 17.7476C26.3577 17.9827 26.8418 18.3172 27.6456 18.3172C29.2807 18.3172 30.7695 17.0153 30.7695 14.1494C30.7605 11.5275 29.2533 10.0991 27.6548 10.0991ZM27.1067 16.3282C26.5678 16.3282 26.2481 16.1383 26.0289 15.9032L26.0197 12.5491C26.2572 12.287 26.586 12.1061 27.1067 12.1061C27.938 12.1061 28.5134 13.0283 28.5134 14.2126C28.5134 15.4241 27.9471 16.3282 27.1067 16.3282ZM20.594 9.56564L22.8867 9.07744V7.24219L20.594 7.72134V9.56564ZM20.594 10.2527H22.8867V18.1634H20.594V10.2527ZM18.1369 10.9217L17.9907 10.2527H16.0177V18.1634H18.3013V12.8022C18.8402 12.106 19.7536 12.2327 20.0368 12.3321V10.2527C19.7444 10.1443 18.6757 9.94533 18.1369 10.9217ZM13.5697 8.29091L11.341 8.76102L11.3318 16.0027C11.3318 17.3408 12.3458 18.3262 13.6976 18.3262C14.4466 18.3262 14.9947 18.1906 15.2961 18.0278V16.1926C15.0039 16.3101 13.5606 16.726 13.5606 15.388V12.1784H15.2961V10.2528H13.5606L13.5697 8.29091ZM7.39497 12.5491C7.39497 12.1965 7.68723 12.0609 8.17142 12.0609C8.86558 12.0609 9.74244 12.2688 10.4367 12.6395V10.5149C9.67852 10.2166 8.9295 10.099 8.17142 10.099C6.31711 10.099 5.08398 11.0573 5.08398 12.6576C5.08398 15.1528 8.55503 14.755 8.55503 15.8309C8.55503 16.2468 8.18962 16.3824 7.67817 16.3824C6.92 16.3824 5.95179 16.075 5.18448 15.6591V17.8108C6.034 18.1725 6.89257 18.3262 7.67817 18.3262C9.57802 18.3262 10.8843 17.3949 10.8843 15.7766C10.8752 13.0825 7.39497 13.5617 7.39497 12.5491Z" fill="white"/>
</g>
<defs>
<clipPath id="clip0_2129_604">
<rect width="43" height="28" rx="6" fill="white"/>
</clipPath>
</defs>
</svg>
