<svg width="230" height="86" viewBox="0 0 230 86" fill="none" xmlns="http://www.w3.org/2000/svg">
<path d="M35.8052 84.0045L30.5351 79.7958H19.4929C18.0393 79.799 16.6218 79.3492 15.4427 78.5105C14.2636 77.6718 13.3832 76.4871 12.927 75.1254L8.85495 62.4823L2.84489 57.6853C1.66746 56.8517 0.789683 55.6699 0.338766 54.311C-0.112151 52.9522 -0.112776 51.487 0.336982 50.1278L2.60565 43.0826L0.336982 36.0389C-0.112883 34.6796 -0.112313 33.2143 0.338608 31.8554C0.78953 30.4964 1.66737 29.3145 2.84489 28.4808L8.85495 23.6816L12.927 11.0412C13.3831 9.67946 14.2635 8.49462 15.4426 7.65575C16.6217 6.81689 18.0392 6.36687 19.4929 6.36991H30.5347L35.8052 2.16213C36.9873 1.32272 38.4069 0.871094 39.8634 0.871094C41.3198 0.871094 42.7394 1.32272 43.9215 2.16213L49.1916 6.37036H60.2339C61.6875 6.36739 63.105 6.81743 64.284 7.65629C65.4631 8.49514 66.3435 9.67995 66.7997 11.0417L70.8709 23.6821L76.8809 28.4813C78.0585 29.3149 78.9365 30.4968 79.3875 31.8557C79.8385 33.2147 79.8391 34.68 79.3893 36.0393L77.1202 43.0844L79.3893 50.1296C79.839 51.4888 79.8383 52.954 79.3873 54.3129C78.9363 55.6717 78.0584 56.8536 76.8809 57.6871L70.8713 62.4823L66.8002 75.1231C66.3439 76.4847 65.4634 77.6694 64.2843 78.5081C63.1053 79.3468 61.6879 79.7967 60.2343 79.7936H49.1916L43.9215 84.0022C42.7394 84.8417 41.3198 85.2933 39.8634 85.2933C38.4069 85.2933 36.9873 84.8417 35.8052 84.0022V84.0045ZM39.8113 68.8507H39.9159C40.4567 68.8323 41.0002 68.8346 41.5428 68.8373C42.8425 68.8907 44.1441 68.8003 45.4234 68.568C47.6575 68.0794 48.916 66.8139 49.2871 64.6192V62.2759L43.414 61.6589H36.3132L30.4391 62.428V64.6187C30.8098 66.8117 32.0692 68.0771 34.3052 68.5676C35.5843 68.8 36.8858 68.8903 38.1853 68.8368C38.373 68.8368 38.5607 68.8368 38.7484 68.8368C39.1022 68.8355 39.457 68.8386 39.8113 68.8507ZM53.0626 31.1486L52.7688 34.3745C52.7684 34.4583 52.7416 34.54 52.692 34.6081C52.6424 34.6762 52.5726 34.7274 52.4923 34.7546L45.0604 37.0804C44.9451 37.1161 44.8444 37.1871 44.7728 37.2831C44.7011 37.3791 44.6623 37.4951 44.662 37.6144V37.7939C44.662 42.1578 44.6702 46.5213 44.6465 50.8843C44.626 51.2617 44.504 51.6269 44.2931 51.9424C43.6086 52.8682 42.6448 54.0654 41.5951 54.3629C41.1949 54.4703 40.7818 54.5241 40.3671 54.5227L40.569 60.0367L50.7403 61.0329C51.7727 60.8112 52.2039 60.0044 52.6051 59.0661L51.841 51.1235L55.0375 50.7977C58.4437 46.8937 60.3658 42.4728 60.0337 37.254C59.8973 35.1109 59.2605 33.0606 58.752 30.9893C58.2772 29.0646 57.7514 27.1517 57.2297 25.2387C56.1513 21.2926 53.7831 19.3931 49.5914 19.2257C46.9939 19.1202 44.3905 19.1566 41.7902 19.1018H39.8645H37.9388C35.3385 19.1566 32.7356 19.1202 30.1381 19.2257C25.9464 19.3949 23.5777 21.2944 22.4997 25.2387C21.9771 27.1517 21.4536 29.0646 20.9774 30.9893C20.4657 33.0593 19.829 35.1095 19.6925 37.2527C19.3605 42.4715 21.2844 46.8933 24.6888 50.7964L27.8853 51.1222L27.1212 59.0647C27.5228 60.0026 27.9535 60.8094 28.986 61.0315L39.3437 60.0174H39.4488L39.7417 54.507C39.5338 54.4957 39.3251 54.48 39.1177 54.4643C38.3085 54.4042 37.5135 53.4547 36.8681 52.8072C35.3176 51.3389 35.3085 49.145 36.9714 47.8361C37.7968 47.1334 38.841 46.7305 39.9306 46.6944C41.0202 46.6582 42.0895 46.9909 42.9609 47.6373C43.0259 47.6691 43.0931 47.6962 43.162 47.7185C43.162 47.4739 43.162 47.2698 43.162 47.0634C43.1717 42.3732 43.1815 37.6829 43.1915 32.9924C43.1915 32.383 43.2702 32.1914 43.9006 32.1771L52.5819 30.7514C52.6047 30.7476 52.6278 30.7456 52.651 30.7456C52.7049 30.7453 52.7583 30.7555 52.8081 30.7756C52.858 30.7957 52.9034 30.8253 52.9416 30.8628C52.9798 30.9002 53.0102 30.9447 53.031 30.9938C53.0517 31.0428 53.0625 31.0954 53.0626 31.1486ZM32.6041 36.6927L27.8739 35.2913L26.0601 34.7528C25.9795 34.7257 25.9095 34.6746 25.8598 34.6065C25.8101 34.5384 25.7831 34.4566 25.7826 34.3727L25.7081 33.5479L25.6203 32.5805L25.4902 31.1468C25.4907 31.0882 25.5041 31.0305 25.5295 30.9776C25.5549 30.9246 25.5916 30.8778 25.6372 30.8403C25.6828 30.8027 25.736 30.7754 25.7934 30.7603C25.8507 30.7451 25.9106 30.7424 25.9691 30.7523L34.6504 32.1779C35.2803 32.1919 35.3585 32.3835 35.3595 32.9933L34.6458 37.2962L32.6041 36.6927Z" fill="white"/>
<path d="M111.702 66.406V19.7656H118.486V60.47H123.574V66.406H111.702Z" fill="white"/>
<path d="M155.798 36.7258H149.014V26.1257C149.014 25.6573 148.634 25.2777 148.166 25.2777C147.697 25.2777 147.318 25.6573 147.318 26.1257V60.258C147.318 60.8434 147.792 61.318 148.378 61.318C148.963 61.318 149.438 60.8434 149.438 60.258V50.2939H155.798V58.7739C155.798 62.989 152.381 66.406 148.166 66.406C143.951 66.406 140.534 62.989 140.534 58.7739V27.3977C140.534 23.1826 143.951 19.7656 148.166 19.7656C152.381 19.7656 155.798 23.1826 155.798 27.3977V36.7258Z" fill="white"/>
<path d="M156.646 66.406V19.7656H163.43V37.5738L166.398 19.7656H172.758L168.518 41.8138L172.758 66.406H166.398L163.43 48.1739V66.406H156.646Z" fill="white"/>
<path d="M180.39 19.7656H173.606V66.406H185.902V60.47H180.39V19.7656Z" fill="white"/>
<path d="M193.534 19.7656H187.174V66.406H193.534V19.7656Z" fill="white"/>
<path d="M212.614 19.7656V66.406H218.55V31.2137L221.518 66.406H229.998V19.7656H224.486V52.4139L221.518 19.7656H212.614Z" fill="white"/>
<path fill-rule="evenodd" clip-rule="evenodd" d="M126.966 19.7656H136.294L139.686 66.406H132.902V58.7739H130.358V66.406H124.422L126.966 19.7656ZM131.63 28.2457L132.902 52.8379H130.358L131.63 28.2457Z" fill="white"/>
<path fill-rule="evenodd" clip-rule="evenodd" d="M195.654 27.3977V58.7739C195.654 62.989 199.071 66.406 203.286 66.406C207.501 66.406 210.918 62.989 210.918 58.7739V27.3977C210.918 23.1826 207.501 19.7656 203.286 19.7656C199.071 19.7656 195.654 23.1826 195.654 27.3977ZM203.286 61.318C203.755 61.318 204.134 60.9383 204.134 60.47V26.1257C204.134 25.6573 203.755 25.2777 203.286 25.2777V25.2777C202.818 25.2777 202.438 25.6573 202.438 26.1257V60.47C202.438 60.9383 202.818 61.318 203.286 61.318V61.318Z" fill="white"/>
<path fill-rule="evenodd" clip-rule="evenodd" d="M94.3174 19.7656L94.7414 66.406H100.677C102.917 66.406 105.228 66.0523 106.897 64.5601C108.001 63.5733 109.071 62.2361 109.657 60.5566C109.965 59.6746 110.006 58.7285 110.006 57.7943V49.5165C110.006 47.7847 109.76 46.0351 108.849 44.5623C108.119 43.3811 107.154 42.1997 106.189 41.8138C106.978 41.526 107.675 40.8365 108.238 40.0646C109.349 38.5403 109.582 36.5938 109.582 34.7075V27.8779C109.582 26.8557 109.539 25.8137 109.141 24.872C108.557 23.4898 107.582 22.3728 106.567 21.5269C104.827 20.0766 102.484 19.7656 100.219 19.7656H94.3174ZM101.101 39.2698V25.7017C102.382 26.2138 103.221 27.454 103.221 28.833V36.1385C103.221 37.5175 102.382 38.7576 101.101 39.2698ZM101.101 60.47V45.2058C102.382 45.718 103.221 46.9581 103.221 48.3372V57.3386C103.221 58.7177 102.382 59.9578 101.101 60.47Z" fill="white"/>
</svg>
