<svg width="297" height="110" viewBox="0 0 297 110" fill="none" xmlns="http://www.w3.org/2000/svg">
<path d="M127.15 110.002C126.206 110.002 125.35 109.661 124.581 108.98C123.823 108.299 123.215 107.255 122.756 105.848C122.309 104.44 122.086 102.67 122.086 100.536L122.086 85.7582H124.32V100.57C124.32 101.864 124.438 102.931 124.674 103.771C124.909 104.61 125.238 105.246 125.66 105.677C126.095 106.086 126.604 106.29 127.187 106.29C127.783 106.29 128.291 106.086 128.713 105.677C129.148 105.246 129.477 104.61 129.7 103.771C129.936 102.931 130.054 101.864 130.054 100.57V85.7582H132.288V100.536C132.288 102.67 132.058 104.44 131.599 105.848C131.14 107.255 130.519 108.299 129.737 108.98C128.955 109.661 128.093 110.002 127.15 110.002Z" fill="white"/>
<path d="M135.355 109.593V85.7582L137.589 85.7582L143.863 102.987V85.7582L146.097 85.7582V109.593H143.863L137.589 92.3979V109.593H135.355Z" fill="white"/>
<path d="M149.276 109.593V85.7582H151.51V106.392H157.318V109.593H149.276Z" fill="white"/>
<path d="M164.809 110.002C163.555 110.002 162.445 109.491 161.476 108.469C160.521 107.425 159.77 105.984 159.224 104.145C158.678 102.284 158.405 100.127 158.405 97.6756C158.405 95.2468 158.678 93.113 159.224 91.2743C159.77 89.4129 160.521 87.9601 161.476 86.9159C162.445 85.8717 163.555 85.3496 164.809 85.3496C166.087 85.3496 167.21 85.8717 168.178 86.9159C169.146 87.9601 169.897 89.4129 170.431 91.2743C170.965 93.113 171.231 95.2468 171.231 97.6756C171.231 100.127 170.965 102.284 170.431 104.145C169.897 105.984 169.146 107.425 168.178 108.469C167.21 109.491 166.087 110.002 164.809 110.002ZM164.827 106.324C165.659 106.324 166.385 105.984 167.006 105.303C167.626 104.599 168.104 103.6 168.439 102.306C168.774 101.013 168.942 99.4689 168.942 97.6756C168.942 95.8823 168.774 94.3388 168.439 93.0449C168.104 91.751 167.626 90.7635 167.006 90.0825C166.385 89.3788 165.659 89.027 164.827 89.027C163.996 89.027 163.27 89.3788 162.649 90.0825C162.029 90.7635 161.545 91.751 161.197 93.0449C160.862 94.3388 160.695 95.8823 160.695 97.6756C160.695 99.4689 160.862 101.013 161.197 102.306C161.545 103.6 162.029 104.599 162.649 105.303C163.27 105.984 163.996 106.324 164.827 106.324Z" fill="white"/>
<path d="M179.762 110.002C178.472 110.002 177.355 109.491 176.411 108.469C175.481 107.425 174.761 105.984 174.252 104.145C173.756 102.284 173.507 100.139 173.507 97.7097C173.507 95.2581 173.756 93.113 174.252 91.2743C174.761 89.4129 175.481 87.9601 176.411 86.9159C177.355 85.8717 178.472 85.3496 179.762 85.3496C181.314 85.3496 182.58 86.0533 183.56 87.4607C184.541 88.8454 185.161 90.8089 185.422 93.3513H182.964C182.791 92.012 182.437 90.9565 181.903 90.1847C181.37 89.4129 180.65 89.027 179.744 89.027C178.925 89.027 178.217 89.3788 177.622 90.0825C177.038 90.7635 176.585 91.7623 176.263 93.0789C175.952 94.3728 175.797 95.9164 175.797 97.7097C175.797 99.503 175.952 101.047 176.263 102.34C176.585 103.612 177.038 104.599 177.622 105.303C178.217 105.984 178.925 106.324 179.744 106.324C180.65 106.324 181.37 105.972 181.903 105.269C182.437 104.542 182.791 103.544 182.964 102.272H185.422C185.174 104.679 184.553 106.574 183.56 107.959C182.58 109.321 181.314 110.002 179.762 110.002Z" fill="white"/>
<path d="M188.166 109.593V85.7582H190.4V95.5986L195.315 85.7582H198.089L193.267 95.2241L198.201 109.593H195.483L191.685 98.3566L190.4 100.91V109.593H188.166Z" fill="white"/>
<path d="M200.505 109.593V85.7582L202.739 85.7582V109.593H200.505Z" fill="white"/>
<path d="M205.918 109.593V85.7582H208.152L214.426 102.987V85.7582H216.66V109.593H214.426L208.152 92.3979V109.593H205.918Z" fill="white"/>
<path d="M225.517 110.002C224.288 110.002 223.208 109.491 222.278 108.469C221.359 107.448 220.646 106.029 220.137 104.213C219.628 102.375 219.373 100.229 219.373 97.7778C219.373 95.3489 219.634 93.2038 220.155 91.3424C220.677 89.4583 221.421 87.9941 222.389 86.95C223.37 85.8831 224.53 85.3496 225.871 85.3496C227.385 85.3496 228.638 86.0193 229.631 87.3585C230.636 88.6751 231.288 90.5138 231.586 92.8746H229.073C228.886 91.6942 228.52 90.7749 227.974 90.1166C227.428 89.4583 226.721 89.1291 225.852 89.1291C224.971 89.1291 224.214 89.481 223.581 90.1847C222.96 90.8657 222.482 91.8645 222.147 93.1811C221.825 94.475 221.663 96.0185 221.663 97.8118C221.663 99.6051 221.825 101.149 222.147 102.443C222.482 103.737 222.954 104.724 223.562 105.405C224.17 106.063 224.884 106.392 225.703 106.392C226.919 106.392 227.838 105.768 228.458 104.52C229.079 103.271 229.445 101.648 229.557 99.6505H226.187V96.552L231.809 96.552V109.593H229.761L229.575 106.324C229.29 107.096 228.961 107.766 228.589 108.333C228.216 108.878 227.776 109.298 227.267 109.593C226.77 109.865 226.187 110.002 225.517 110.002Z" fill="white"/>
<path d="M243.66 109.593L238.876 85.7582H241.278L245.019 105.405L248.817 85.7582L251.181 85.7582L246.378 109.593H243.66Z" fill="white"/>
<path d="M250.855 109.593L255.621 85.7582H258.116L262.881 109.593H260.517L256.85 90.5252L253.182 109.593H250.855ZM252.977 103.975L253.573 100.74H259.996L260.591 103.975H252.977Z" fill="white"/>
<path d="M265.232 109.593V85.7582L267.466 85.7582V106.392H273.275V109.593H265.232Z" fill="white"/>
<path d="M280.378 110.002C279.435 110.002 278.578 109.661 277.809 108.98C277.052 108.299 276.444 107.255 275.984 105.848C275.538 104.44 275.314 102.67 275.314 100.536V85.7582L277.548 85.7582V100.57C277.548 101.864 277.666 102.931 277.902 103.771C278.138 104.61 278.467 105.246 278.888 105.677C279.323 106.086 279.832 106.29 280.415 106.29C281.011 106.29 281.52 106.086 281.942 105.677C282.376 105.246 282.705 104.61 282.928 103.771C283.164 102.931 283.282 101.864 283.282 100.57V85.7582L285.516 85.7582V100.536C285.516 102.67 285.286 104.44 284.827 105.848C284.368 107.255 283.747 108.299 282.965 108.98C282.184 109.661 281.321 110.002 280.378 110.002Z" fill="white"/>
<path d="M288.584 109.593V85.7582L296.998 85.7582V89.061H290.818V95.9051H296.44V99.1398H290.818V106.29H296.998V109.593H288.584Z" fill="white"/>
<path d="M46.2352 108.178L39.4299 102.743H25.1711C23.2941 102.748 21.4637 102.167 19.9411 101.084C18.4186 100.001 17.2817 98.4709 16.6926 96.7126L11.4344 80.3866L3.6736 74.1923C2.15319 73.1158 1.01972 71.5897 0.437448 69.835C-0.144821 68.0803 -0.145627 66.1883 0.435145 64.4332L3.36467 55.3358L0.435145 46.2402C-0.145765 44.485 -0.14503 42.5928 0.437244 40.8381C1.01952 39.0833 2.15307 37.557 3.6736 36.4805L11.4344 30.2833L16.6926 13.9608C17.2816 12.2024 18.4185 10.6724 19.941 9.58914C21.4636 8.50592 23.294 7.92481 25.1711 7.92874H39.4294L46.2352 2.49524C47.7616 1.41131 49.5948 0.828125 51.4755 0.828125C53.3562 0.828125 55.1894 1.41131 56.7158 2.49524L63.521 7.92932H77.7799C79.657 7.92548 81.4873 8.50662 83.0099 9.58983C84.5324 10.673 85.6693 12.203 86.2584 13.9614L91.5154 30.2839L99.2762 36.4811C100.797 37.5575 101.931 39.0837 102.513 40.8385C103.095 42.5933 103.096 44.4855 102.515 46.2408L99.5851 55.3381L102.515 64.4355C103.096 66.1907 103.095 68.0828 102.513 69.8374C101.93 71.5921 100.797 73.1182 99.2762 74.1946L91.516 80.3866L86.259 96.7097C85.6698 98.4679 84.5328 99.9977 83.0103 101.081C81.4877 102.164 79.6574 102.745 77.7805 102.741H63.521L56.7158 108.175C55.1894 109.259 53.3562 109.842 51.4755 109.842C49.5948 109.842 47.7616 109.259 46.2352 108.175V108.178ZM51.4082 88.6101H51.5433C52.2416 88.5864 52.9435 88.5893 53.6442 88.5928C55.3224 88.6617 57.0032 88.5451 58.6551 88.2451C61.54 87.6141 63.1651 85.98 63.6444 83.1459V80.12L56.0604 79.3233H46.8912L39.306 80.3165V83.1454C39.7847 85.9771 41.411 87.6112 44.2982 88.2445C45.9499 88.5446 47.6305 88.6612 49.3086 88.5922C49.551 88.5922 49.7933 88.5922 50.0357 88.5922C50.4926 88.5904 50.9507 88.5945 51.4082 88.6101ZM68.5197 39.9254L68.1403 44.091C68.1397 44.1993 68.1051 44.3047 68.0411 44.3926C67.9771 44.4806 67.887 44.5467 67.7832 44.5818L58.1865 47.5851C58.0376 47.6313 57.9075 47.723 57.815 47.8469C57.7225 47.9709 57.6724 48.1207 57.672 48.2747V48.5064C57.672 54.1416 57.6825 59.7761 57.652 65.4101C57.6254 65.8975 57.4679 66.369 57.1957 66.7765C56.3117 67.9719 55.0672 69.5179 53.7117 69.902C53.1949 70.0407 52.6615 70.1101 52.1259 70.1083L52.3867 77.2286L65.5208 78.515C66.8541 78.2287 67.4108 77.1869 67.9288 75.9752L66.9422 65.719L71.0698 65.2983C75.4682 60.2571 77.9502 54.5484 77.5215 47.8094C77.3453 45.0419 76.523 42.3944 75.8664 39.7197C75.2532 37.2344 74.5743 34.7642 73.9007 32.294C72.5081 27.1983 69.45 24.7455 64.0373 24.5294C60.6831 24.3932 57.3213 24.4402 53.9637 24.3695H51.477H48.9903C45.6326 24.4402 42.2714 24.3932 38.9172 24.5294C33.5045 24.7478 30.4458 27.2007 29.0538 32.294C28.379 34.7642 27.703 37.2344 27.0881 39.7197C26.4274 42.3927 25.6051 45.0402 25.4289 47.8076C25.0002 54.5466 27.4845 60.2565 31.8806 65.2966L36.0083 65.7172L35.0216 75.9735C35.5402 77.1846 36.0963 78.2264 37.4296 78.5132L50.8045 77.2037H50.9402L51.3184 70.088C51.05 70.0735 50.7804 70.0533 50.5126 70.033C49.4678 69.9553 48.4411 68.7292 47.6077 67.8931C45.6056 65.9971 45.5938 63.1642 47.741 61.4739C48.8069 60.5666 50.1554 60.0463 51.5623 59.9996C52.9693 59.953 54.3501 60.3826 55.4754 61.2172C55.5593 61.2583 55.646 61.2934 55.735 61.3221C55.735 61.0063 55.735 60.7427 55.735 60.4761C55.7475 54.4197 55.7603 48.3631 55.7732 42.3063C55.7732 41.5194 55.8748 41.272 56.6888 41.2535L67.8989 39.4125C67.9284 39.4076 67.9582 39.4051 67.9882 39.405C68.0577 39.4046 68.1267 39.4178 68.1911 39.4438C68.2555 39.4697 68.314 39.508 68.3634 39.5563C68.4128 39.6047 68.452 39.6622 68.4788 39.7255C68.5056 39.7888 68.5195 39.8567 68.5197 39.9254ZM42.1016 47.0845L35.9936 45.2748L33.6514 44.5795C33.5473 44.5446 33.4569 44.4785 33.3927 44.3906C33.3285 44.3026 33.2937 44.1971 33.2931 44.0887L33.1968 43.0237L33.0834 41.7744L32.9154 39.923C32.9161 39.8474 32.9334 39.7729 32.9662 39.7045C32.999 39.6362 33.0465 39.5757 33.1053 39.5273C33.1641 39.4788 33.2329 39.4436 33.3069 39.424C33.3809 39.4044 33.4584 39.4009 33.5339 39.4137L44.744 41.2546C45.5574 41.2726 45.6584 41.52 45.6596 42.3075L44.7381 47.8638L42.1016 47.0845Z" fill="white"/>
<path d="M144.244 71.0333V10.8066H153.004V63.3681H159.574V71.0333H144.244Z" fill="white"/>
<path d="M201.186 32.7072H192.425V19.0194C192.425 18.4146 191.935 17.9243 191.33 17.9243C190.726 17.9243 190.235 18.4146 190.235 19.0194V63.0943C190.235 63.8503 190.848 64.4631 191.604 64.4631C192.36 64.4631 192.973 63.8503 192.973 63.0943V50.2277H201.186V61.178C201.186 66.6209 196.773 71.0333 191.33 71.0333C185.887 71.0333 181.475 66.6209 181.475 61.178V20.6619C181.475 15.219 185.887 10.8066 191.33 10.8066C196.773 10.8066 201.186 15.219 201.186 20.6619V32.7072Z" fill="white"/>
<path d="M202.281 71.0333V10.8066H211.041V33.8023L214.873 10.8066H223.086L217.611 39.2774L223.086 71.0333H214.873L211.041 47.4901V71.0333H202.281Z" fill="white"/>
<path d="M232.941 10.8066H224.181V71.0333H240.059V63.3681H232.941V10.8066Z" fill="white"/>
<path d="M249.914 10.8066H241.702V71.0333H249.914V10.8066Z" fill="white"/>
<path d="M274.553 10.8066V71.0333H282.218V25.5895L286.05 71.0333H297.001V10.8066H289.883V52.9653L286.05 10.8066H274.553Z" fill="white"/>
<path fill-rule="evenodd" clip-rule="evenodd" d="M163.955 10.8066H176L180.38 71.0333H171.62V61.178H168.335V71.0333H160.669L163.955 10.8066ZM169.977 21.7569L171.62 53.5128H168.335L169.977 21.7569Z" fill="white"/>
<path fill-rule="evenodd" clip-rule="evenodd" d="M252.652 20.6619V61.178C252.652 66.6209 257.064 71.0333 262.507 71.0333C267.95 71.0333 272.363 66.6209 272.363 61.178V20.6619C272.363 15.219 267.95 10.8066 262.507 10.8066C257.064 10.8066 252.652 15.219 252.652 20.6619ZM262.507 64.4631C263.112 64.4631 263.602 63.9729 263.602 63.3681V19.0194C263.602 18.4146 263.112 17.9243 262.507 17.9243V17.9243C261.902 17.9243 261.412 18.4146 261.412 19.0194V63.3681C261.412 63.9729 261.902 64.4631 262.507 64.4631V64.4631Z" fill="white"/>
<path fill-rule="evenodd" clip-rule="evenodd" d="M121.796 10.8066L122.343 71.0333H130.009C132.9 71.0333 135.885 70.5765 138.04 68.6496C139.466 67.3754 140.847 65.6487 141.605 63.48C142.002 62.3411 142.054 61.1193 142.054 59.913V49.2239C142.054 46.9877 141.737 44.7284 140.561 42.8266C139.618 41.3013 138.372 39.7757 137.126 39.2774C138.145 38.9057 139.045 38.0155 139.772 37.0186C141.206 35.0503 141.506 32.5368 141.506 30.1011V21.282C141.506 19.962 141.451 18.6165 140.938 17.4005C140.183 15.6156 138.924 14.1733 137.614 13.081C135.367 11.2082 132.342 10.8066 129.417 10.8066H121.796ZM130.556 35.9923V18.4719C132.21 19.1332 133.294 20.7346 133.294 22.5153V31.9488C133.294 33.7296 132.21 35.331 130.556 35.9923ZM130.556 63.3681V43.6575C132.21 44.3189 133.294 45.9203 133.294 47.701V59.3246C133.294 61.1054 132.21 62.7067 130.556 63.3681Z" fill="white"/>
</svg>
