<svg width="178" height="136" viewBox="0 0 178 136" fill="none" xmlns="http://www.w3.org/2000/svg">
<mask id="mask0_2006_2393" style="mask-type:luminance" maskUnits="userSpaceOnUse" x="92" y="23" width="86" height="113">
<path d="M92.8633 23.9062H177.561V135.906H92.8633V23.9062Z" fill="white"/>
</mask>
<g mask="url(#mask0_2006_2393)">
<path d="M95.8568 77.5684C127.586 77.3548 133.253 73.5736 133.492 26.7402C133.497 25.5579 134.461 24.5996 135.638 24.5996C136.815 24.5996 137.773 25.5579 137.779 26.7402C138.018 73.5736 143.685 77.3548 175.414 77.5684C176.841 77.5736 177.997 78.735 177.997 80.1517C177.997 81.5632 176.841 82.7246 175.414 82.735C143.69 82.9434 138.018 86.7246 137.779 133.563C137.773 134.745 136.815 135.704 135.638 135.704C134.461 135.704 133.497 134.745 133.492 133.563C133.253 86.7298 127.586 82.9434 95.8568 82.735C94.4349 82.7246 93.2734 81.5684 93.2734 80.1517C93.2734 78.735 94.4349 77.5736 95.8568 77.5684Z" fill="#4FFCB7"/>
</g>
<mask id="mask1_2006_2393" style="mask-type:luminance" maskUnits="userSpaceOnUse" x="0" y="0" width="61" height="82">
<path d="M0 0H60.8646V81.2396H0V0Z" fill="white"/>
</mask>
<g mask="url(#mask1_2006_2393)">
<path d="M1.05208 38.7611C24.1458 38.61 28.6875 35.5944 28.8594 1.3444C28.8646 0.698568 29.3854 0.177734 30.026 0.177734C30.6615 0.177734 31.1875 0.698568 31.1875 1.3444C31.3646 35.5944 35.9062 38.61 59 38.7611C59.8177 38.7663 60.4844 39.4329 60.4844 40.2454C60.4844 41.0579 59.8177 41.7246 59 41.7298C35.9062 41.8861 31.3646 44.8965 31.1875 79.1517C31.1875 79.7923 30.6615 80.3132 30.026 80.3132C29.3854 80.3132 28.8646 79.7923 28.8594 79.1517C28.6875 44.8965 24.1458 41.8861 1.05208 41.7298C0.229167 41.7246 -0.4375 41.0579 -0.4375 40.2454C-0.4375 39.4329 0.229167 38.7663 1.05208 38.7611Z" fill="#4FFCB7"/>
</g>
<path d="M61.0404 100.551C62.4935 104.816 64.9727 108.009 68.1966 109.738C64.9727 111.467 62.4935 114.66 61.0404 118.926C59.582 114.66 57.1029 111.467 53.8789 109.738C57.1029 108.009 59.582 104.816 61.0404 100.551Z" fill="#4FFCB7"/>
<path d="M103.254 32.3223C101.796 28.0566 99.3164 24.8639 96.0977 23.1348C99.3164 21.4056 101.796 18.2129 103.254 13.9473C104.707 18.2129 107.186 21.4056 110.41 23.1348C107.186 24.8639 104.707 28.0566 103.254 32.3223Z" fill="#4FFCB7"/>
</svg>
