<svg width="440" height="90" viewBox="0 0 440 90" fill="none" xmlns="http://www.w3.org/2000/svg">
<rect width="440" height="90" rx="18.4266" fill="#CE4641"/>
<path d="M47 63.4226V26.5793C47.0002 26.4994 47.0241 26.4213 47.0685 26.3549C47.113 26.2884 47.1761 26.2366 47.2498 26.2058C47.3236 26.1751 47.4049 26.1668 47.4833 26.1821C47.5618 26.1973 47.634 26.2354 47.6909 26.2915L66.8751 45L47.6909 63.7104C47.634 63.7665 47.5618 63.8046 47.4833 63.8198C47.4049 63.835 47.3236 63.8268 47.2498 63.796C47.1761 63.7653 47.113 63.7135 47.0685 63.647C47.0241 63.5806 47.0002 63.5025 47 63.4226ZM74.9189 52.6874L50.8644 65.9397L50.8494 65.9482C50.435 66.1732 50.0413 65.6125 50.3806 65.2863L69.2367 47.2565L74.9189 52.6874ZM50.3825 24.7137C50.0413 24.3875 50.435 23.8268 50.8513 24.0518L50.8663 24.0603L74.9189 37.3126L69.2367 42.7453L50.3825 24.7137ZM84.6296 47.3437L77.9124 51.043L71.5964 45L77.9124 38.9598L84.6296 42.6563C86.4568 43.666 86.4568 46.334 84.6296 47.3437Z" fill="white"/>
<path d="M124.364 26C124.239 25.6174 124.074 25.2746 123.869 24.9716C123.669 24.6648 123.428 24.4034 123.148 24.1875C122.871 23.9716 122.557 23.8068 122.205 23.6932C121.852 23.5795 121.466 23.5227 121.045 23.5227C120.356 23.5227 119.729 23.7008 119.165 24.0568C118.6 24.4129 118.152 24.9375 117.818 25.6307C117.485 26.3239 117.318 27.1742 117.318 28.1818C117.318 29.1894 117.487 30.0398 117.824 30.733C118.161 31.4261 118.617 31.9508 119.193 32.3068C119.769 32.6629 120.417 32.8409 121.136 32.8409C121.803 32.8409 122.39 32.6989 122.898 32.4148C123.409 32.1269 123.807 31.7216 124.091 31.1989C124.379 30.6723 124.523 30.053 124.523 29.3409L124.955 29.4318H121.455V28.1818H125.886V29.4318C125.886 30.3902 125.682 31.2235 125.273 31.9318C124.867 32.6402 124.307 33.1894 123.591 33.5795C122.879 33.9659 122.061 34.1591 121.136 34.1591C120.106 34.1591 119.201 33.9167 118.42 33.4318C117.644 32.947 117.038 32.2576 116.602 31.3636C116.17 30.4697 115.955 29.4091 115.955 28.1818C115.955 27.2614 116.078 26.4337 116.324 25.6989C116.574 24.9602 116.926 24.3314 117.381 23.8125C117.835 23.2936 118.373 22.8958 118.994 22.6193C119.616 22.3428 120.299 22.2045 121.045 22.2045C121.659 22.2045 122.231 22.2973 122.761 22.483C123.295 22.6648 123.771 22.9242 124.188 23.2614C124.608 23.5947 124.958 23.9943 125.239 24.4602C125.519 24.9223 125.712 25.4356 125.818 26H124.364ZM128.3 34V22.3636H135.322V23.6136H129.709V27.5455H134.959V28.7955H129.709V32.75H135.413V34H128.3ZM137.226 23.6136V22.3636H145.953V23.6136H142.294V34H140.885V23.6136H137.226ZM154.037 22.3636V34H152.628V22.3636H154.037ZM156.226 23.6136V22.3636H164.953V23.6136H161.294V34H159.885V23.6136H156.226ZM181.446 28.1818C181.446 29.4091 181.224 30.4697 180.781 31.3636C180.338 32.2576 179.73 32.947 178.957 33.4318C178.185 33.9167 177.302 34.1591 176.31 34.1591C175.317 34.1591 174.435 33.9167 173.662 33.4318C172.889 32.947 172.281 32.2576 171.838 31.3636C171.395 30.4697 171.173 29.4091 171.173 28.1818C171.173 26.9545 171.395 25.8939 171.838 25C172.281 24.1061 172.889 23.4167 173.662 22.9318C174.435 22.447 175.317 22.2045 176.31 22.2045C177.302 22.2045 178.185 22.447 178.957 22.9318C179.73 23.4167 180.338 24.1061 180.781 25C181.224 25.8939 181.446 26.9545 181.446 28.1818ZM180.082 28.1818C180.082 27.1742 179.914 26.3239 179.577 25.6307C179.243 24.9375 178.791 24.4129 178.219 24.0568C177.651 23.7008 177.014 23.5227 176.31 23.5227C175.605 23.5227 174.967 23.7008 174.395 24.0568C173.827 24.4129 173.374 24.9375 173.037 25.6307C172.704 26.3239 172.537 27.1742 172.537 28.1818C172.537 29.1894 172.704 30.0398 173.037 30.733C173.374 31.4261 173.827 31.9508 174.395 32.3068C174.967 32.6629 175.605 32.8409 176.31 32.8409C177.014 32.8409 177.651 32.6629 178.219 32.3068C178.791 31.9508 179.243 31.4261 179.577 30.733C179.914 30.0398 180.082 29.1894 180.082 28.1818ZM193.043 22.3636V34H191.679L185.338 24.8636H185.224V34H183.815V22.3636H185.179L191.543 31.5227H191.656V22.3636H193.043Z" fill="white"/>
<path d="M128.544 54.1875C128.425 53.7727 128.257 53.4062 128.041 53.0881C127.825 52.7642 127.561 52.4915 127.249 52.2699C126.942 52.0426 126.589 51.8693 126.192 51.75C125.8 51.6307 125.365 51.571 124.888 51.571C123.996 51.571 123.212 51.7926 122.536 52.2358C121.865 52.679 121.342 53.3239 120.967 54.1705C120.592 55.0114 120.405 56.0398 120.405 57.2557C120.405 58.4716 120.589 59.5057 120.959 60.358C121.328 61.2102 121.851 61.8608 122.527 62.3097C123.203 62.7528 124.001 62.9744 124.922 62.9744C125.757 62.9744 126.47 62.8267 127.061 62.5312C127.658 62.2301 128.112 61.8068 128.425 61.2614C128.743 60.7159 128.902 60.071 128.902 59.3267L129.652 59.4375H125.152V56.6591H132.456V58.858C132.456 60.392 132.132 61.7102 131.484 62.8125C130.837 63.9091 129.945 64.7557 128.808 65.3523C127.672 65.9432 126.371 66.2386 124.905 66.2386C123.268 66.2386 121.831 65.8778 120.592 65.1562C119.354 64.429 118.388 63.3977 117.695 62.0625C117.007 60.7216 116.663 59.1307 116.663 57.2898C116.663 55.875 116.868 54.6136 117.277 53.5057C117.692 52.392 118.271 51.4489 119.016 50.6761C119.76 49.9034 120.626 49.3153 121.615 48.9119C122.604 48.5085 123.675 48.3068 124.828 48.3068C125.817 48.3068 126.737 48.4517 127.589 48.7415C128.442 49.0256 129.197 49.429 129.857 49.9517C130.521 50.4744 131.064 51.0966 131.484 51.8182C131.905 52.5341 132.175 53.3239 132.294 54.1875H128.544ZM151.268 57.2727C151.268 59.1761 150.907 60.7955 150.185 62.1307C149.469 63.4659 148.492 64.4858 147.254 65.1903C146.021 65.8892 144.634 66.2386 143.094 66.2386C141.543 66.2386 140.151 65.8864 138.918 65.1818C137.685 64.4773 136.711 63.4574 135.995 62.1222C135.279 60.7869 134.921 59.1705 134.921 57.2727C134.921 55.3693 135.279 53.75 135.995 52.4148C136.711 51.0795 137.685 50.0625 138.918 49.3636C140.151 48.6591 141.543 48.3068 143.094 48.3068C144.634 48.3068 146.021 48.6591 147.254 49.3636C148.492 50.0625 149.469 51.0795 150.185 52.4148C150.907 53.75 151.268 55.3693 151.268 57.2727ZM147.526 57.2727C147.526 56.0398 147.342 55 146.972 54.1534C146.609 53.3068 146.094 52.6648 145.43 52.2273C144.765 51.7898 143.987 51.571 143.094 51.571C142.202 51.571 141.424 51.7898 140.759 52.2273C140.094 52.6648 139.577 53.3068 139.208 54.1534C138.844 55 138.663 56.0398 138.663 57.2727C138.663 58.5057 138.844 59.5455 139.208 60.392C139.577 61.2386 140.094 61.8807 140.759 62.3182C141.424 62.7557 142.202 62.9744 143.094 62.9744C143.987 62.9744 144.765 62.7557 145.43 62.3182C146.094 61.8807 146.609 61.2386 146.972 60.392C147.342 59.5455 147.526 58.5057 147.526 57.2727ZM170.041 57.2727C170.041 59.1761 169.68 60.7955 168.959 62.1307C168.243 63.4659 167.266 64.4858 166.027 65.1903C164.794 65.8892 163.408 66.2386 161.868 66.2386C160.317 66.2386 158.925 65.8864 157.692 65.1818C156.459 64.4773 155.484 63.4574 154.768 62.1222C154.053 60.7869 153.695 59.1705 153.695 57.2727C153.695 55.3693 154.053 53.75 154.768 52.4148C155.484 51.0795 156.459 50.0625 157.692 49.3636C158.925 48.6591 160.317 48.3068 161.868 48.3068C163.408 48.3068 164.794 48.6591 166.027 49.3636C167.266 50.0625 168.243 51.0795 168.959 52.4148C169.68 53.75 170.041 55.3693 170.041 57.2727ZM166.3 57.2727C166.3 56.0398 166.115 55 165.746 54.1534C165.382 53.3068 164.868 52.6648 164.203 52.2273C163.538 51.7898 162.76 51.571 161.868 51.571C160.976 51.571 160.197 51.7898 159.533 52.2273C158.868 52.6648 158.351 53.3068 157.982 54.1534C157.618 55 157.436 56.0398 157.436 57.2727C157.436 58.5057 157.618 59.5455 157.982 60.392C158.351 61.2386 158.868 61.8807 159.533 62.3182C160.197 62.7557 160.976 62.9744 161.868 62.9744C162.76 62.9744 163.538 62.7557 164.203 62.3182C164.868 61.8807 165.382 61.2386 165.746 60.392C166.115 59.5455 166.3 58.5057 166.3 57.2727ZM184.349 54.1875C184.229 53.7727 184.062 53.4062 183.846 53.0881C183.63 52.7642 183.366 52.4915 183.053 52.2699C182.746 52.0426 182.394 51.8693 181.996 51.75C181.604 51.6307 181.17 51.571 180.692 51.571C179.8 51.571 179.016 51.7926 178.34 52.2358C177.67 52.679 177.147 53.3239 176.772 54.1705C176.397 55.0114 176.21 56.0398 176.21 57.2557C176.21 58.4716 176.394 59.5057 176.763 60.358C177.133 61.2102 177.656 61.8608 178.332 62.3097C179.008 62.7528 179.806 62.9744 180.727 62.9744C181.562 62.9744 182.275 62.8267 182.866 62.5312C183.462 62.2301 183.917 61.8068 184.229 61.2614C184.548 60.7159 184.707 60.071 184.707 59.3267L185.457 59.4375H180.957V56.6591H188.261V58.858C188.261 60.392 187.937 61.7102 187.289 62.8125C186.641 63.9091 185.749 64.7557 184.613 65.3523C183.477 65.9432 182.175 66.2386 180.71 66.2386C179.073 66.2386 177.636 65.8778 176.397 65.1562C175.158 64.429 174.192 63.3977 173.499 62.0625C172.812 60.7216 172.468 59.1307 172.468 57.2898C172.468 55.875 172.673 54.6136 173.082 53.5057C173.496 52.392 174.076 51.4489 174.82 50.6761C175.565 49.9034 176.431 49.3153 177.42 48.9119C178.408 48.5085 179.479 48.3068 180.633 48.3068C181.621 48.3068 182.542 48.4517 183.394 48.7415C184.246 49.0256 185.002 49.429 185.661 49.9517C186.326 50.4744 186.869 51.0966 187.289 51.8182C187.71 52.5341 187.979 53.3239 188.099 54.1875H184.349ZM191.033 66V48.5455H194.723V62.9574H202.206V66H191.033ZM204.65 66V48.5455H216.411V51.5881H208.34V55.7472H215.806V58.7898H208.34V62.9574H216.445V66H204.65ZM224.9 66V48.5455H231.786C233.11 48.5455 234.238 48.7983 235.17 49.304C236.102 49.804 236.812 50.5 237.3 51.392C237.795 52.2784 238.042 53.3011 238.042 54.4602C238.042 55.6193 237.792 56.642 237.292 57.5284C236.792 58.4148 236.067 59.1051 235.119 59.5994C234.175 60.0937 233.033 60.3409 231.692 60.3409H227.303V57.3835H231.096C231.806 57.3835 232.391 57.2614 232.852 57.017C233.317 56.767 233.664 56.4233 233.891 55.9858C234.124 55.5426 234.241 55.0341 234.241 54.4602C234.241 53.8807 234.124 53.375 233.891 52.9432C233.664 52.5057 233.317 52.1676 232.852 51.929C232.386 51.6847 231.795 51.5625 231.079 51.5625H228.59V66H224.9ZM240.439 66V48.5455H244.129V62.9574H251.612V66H240.439ZM257.51 66H253.555L259.581 48.5455H264.337L270.354 66H266.399L262.027 52.5341H261.891L257.51 66ZM257.263 59.1392H266.604V62.0199H257.263V59.1392ZM269.651 48.5455H273.784L277.764 56.0625H277.935L281.915 48.5455H286.048L279.682 59.8295V66H276.017V59.8295L269.651 48.5455Z" fill="white"/>
</svg>
