<svg width="440" height="90" viewBox="0 0 440 90" fill="none" xmlns="http://www.w3.org/2000/svg">
<rect width="440" height="90" rx="18.4266" fill="#CE4641"/>
<path d="M86 55.1274C85.2721 57.3309 84.1242 59.5345 82.5564 61.738C80.1486 65.1931 77.7502 66.9207 75.3611 66.9207C74.4465 66.9207 73.14 66.6386 71.4415 66.0745C69.8363 65.5104 68.4271 65.2284 67.2139 65.2284C66.0754 65.2284 64.7502 65.5192 63.2383 66.101C61.7265 66.7003 60.4946 67 59.5427 67C56.7057 67 53.8966 64.7171 51.1156 60.1514C48.3719 55.5505 47 51.117 47 46.851C47 42.8317 48.0546 39.5353 50.1637 36.9615C52.2728 34.4231 54.9232 33.1538 58.1149 33.1538C59.4587 33.1538 61.1106 33.4183 63.0704 33.9471C65.0115 34.476 66.2994 34.7404 66.934 34.7404C67.7739 34.7404 69.1084 34.4407 70.9375 33.8413C72.8414 33.242 74.4559 32.9423 75.781 32.9423C78.0022 32.9423 79.9899 33.5152 81.7444 34.6611C82.715 35.2957 83.6856 36.1771 84.6561 37.3053C83.1816 38.4864 82.1177 39.5264 81.4645 40.4255C80.2513 42.0825 79.6447 43.9071 79.6447 45.899C79.6447 48.0849 80.2886 50.0505 81.5765 51.7957C82.8643 53.5409 84.3388 54.6514 86 55.1274ZM75.4731 24.1106C75.4731 25.1859 75.2024 26.3846 74.6612 27.7067C74.1012 29.0288 73.2333 30.2452 72.0574 31.3558C71.0495 32.3077 70.0416 32.9423 69.0337 33.2596C68.3431 33.4535 67.3726 33.6034 66.122 33.7091C66.178 31.0825 66.906 28.8173 68.3058 26.9135C69.687 25.0272 72.0201 23.7228 75.3051 23C75.3238 23.0529 75.3471 23.1498 75.3751 23.2909C75.4031 23.4319 75.4264 23.5288 75.4451 23.5817C75.4451 23.6522 75.4497 23.7404 75.4591 23.8462C75.4684 23.9519 75.4731 24.0401 75.4731 24.1106Z" fill="#DDDDDD"/>
<path d="M120 32H116.409V20.3636H120.159C121.288 20.3636 122.254 20.5966 123.057 21.0625C123.86 21.5246 124.475 22.1894 124.903 23.0568C125.331 23.9205 125.545 24.9545 125.545 26.1591C125.545 27.3712 125.33 28.4148 124.898 29.2898C124.466 30.161 123.837 30.8314 123.011 31.3011C122.186 31.767 121.182 32 120 32ZM117.818 30.75H119.909C120.871 30.75 121.669 30.5644 122.301 30.1932C122.934 29.822 123.405 29.2936 123.716 28.608C124.027 27.9223 124.182 27.1061 124.182 26.1591C124.182 25.2197 124.028 24.411 123.722 23.733C123.415 23.0511 122.956 22.5284 122.347 22.1648C121.737 21.7973 120.977 21.6136 120.068 21.6136H117.818V30.75ZM137.727 26.1818C137.727 27.4091 137.506 28.4697 137.062 29.3636C136.619 30.2576 136.011 30.947 135.239 31.4318C134.466 31.9167 133.583 32.1591 132.591 32.1591C131.598 32.1591 130.716 31.9167 129.943 31.4318C129.17 30.947 128.563 30.2576 128.119 29.3636C127.676 28.4697 127.455 27.4091 127.455 26.1818C127.455 24.9545 127.676 23.8939 128.119 23C128.563 22.1061 129.17 21.4167 129.943 20.9318C130.716 20.447 131.598 20.2045 132.591 20.2045C133.583 20.2045 134.466 20.447 135.239 20.9318C136.011 21.4167 136.619 22.1061 137.062 23C137.506 23.8939 137.727 24.9545 137.727 26.1818ZM136.364 26.1818C136.364 25.1742 136.195 24.3239 135.858 23.6307C135.525 22.9375 135.072 22.4129 134.5 22.0568C133.932 21.7008 133.295 21.5227 132.591 21.5227C131.886 21.5227 131.248 21.7008 130.676 22.0568C130.108 22.4129 129.655 22.9375 129.318 23.6307C128.985 24.3239 128.818 25.1742 128.818 26.1818C128.818 27.1894 128.985 28.0398 129.318 28.733C129.655 29.4261 130.108 29.9508 130.676 30.3068C131.248 30.6629 131.886 30.8409 132.591 30.8409C133.295 30.8409 133.932 30.6629 134.5 30.3068C135.072 29.9508 135.525 29.4261 135.858 28.733C136.195 28.0398 136.364 27.1894 136.364 26.1818ZM142.21 32L139.028 20.3636H140.46L142.892 29.8409H143.006L145.483 20.3636H147.074L149.551 29.8409H149.665L152.097 20.3636H153.528L150.347 32H148.892L146.324 22.7273H146.233L143.665 32H142.21ZM164.511 20.3636V32H163.148L156.807 22.8636H156.693V32H155.284V20.3636H156.648L163.011 29.5227H163.125V20.3636H164.511ZM167.331 32V20.3636H168.74V30.75H174.149V32H167.331ZM185.696 26.1818C185.696 27.4091 185.474 28.4697 185.031 29.3636C184.588 30.2576 183.98 30.947 183.207 31.4318C182.435 31.9167 181.552 32.1591 180.56 32.1591C179.567 32.1591 178.685 31.9167 177.912 31.4318C177.139 30.947 176.531 30.2576 176.088 29.3636C175.645 28.4697 175.423 27.4091 175.423 26.1818C175.423 24.9545 175.645 23.8939 176.088 23C176.531 22.1061 177.139 21.4167 177.912 20.9318C178.685 20.447 179.567 20.2045 180.56 20.2045C181.552 20.2045 182.435 20.447 183.207 20.9318C183.98 21.4167 184.588 22.1061 185.031 23C185.474 23.8939 185.696 24.9545 185.696 26.1818ZM184.332 26.1818C184.332 25.1742 184.164 24.3239 183.827 23.6307C183.493 22.9375 183.041 22.4129 182.469 22.0568C181.901 21.7008 181.264 21.5227 180.56 21.5227C179.855 21.5227 179.217 21.7008 178.645 22.0568C178.077 22.4129 177.624 22.9375 177.287 23.6307C176.954 24.3239 176.787 25.1742 176.787 26.1818C176.787 27.1894 176.954 28.0398 177.287 28.733C177.624 29.4261 178.077 29.9508 178.645 30.3068C179.217 30.6629 179.855 30.8409 180.56 30.8409C181.264 30.8409 181.901 30.6629 182.469 30.3068C183.041 29.9508 183.493 29.4261 183.827 28.733C184.164 28.0398 184.332 27.1894 184.332 26.1818ZM187.996 32H186.518L190.791 20.3636H192.246L196.518 32H195.041L191.564 22.2045H191.473L187.996 32ZM188.541 27.4545H194.496V28.7045H188.541V27.4545ZM201.922 32H198.331V20.3636H202.081C203.21 20.3636 204.176 20.5966 204.979 21.0625C205.782 21.5246 206.397 22.1894 206.825 23.0568C207.253 23.9205 207.467 24.9545 207.467 26.1591C207.467 27.3712 207.251 28.4148 206.82 29.2898C206.388 30.161 205.759 30.8314 204.933 31.3011C204.107 31.767 203.104 32 201.922 32ZM199.74 30.75H201.831C202.793 30.75 203.59 30.5644 204.223 30.1932C204.856 29.822 205.327 29.2936 205.638 28.608C205.948 27.9223 206.104 27.1061 206.104 26.1591C206.104 25.2197 205.95 24.411 205.643 23.733C205.337 23.0511 204.878 22.5284 204.268 22.1648C203.659 21.7973 202.899 21.6136 201.99 21.6136H199.74V30.75ZM224.149 26.1818C224.149 27.4091 223.928 28.4697 223.484 29.3636C223.041 30.2576 222.433 30.947 221.661 31.4318C220.888 31.9167 220.005 32.1591 219.013 32.1591C218.02 32.1591 217.138 31.9167 216.365 31.4318C215.592 30.947 214.984 30.2576 214.541 29.3636C214.098 28.4697 213.876 27.4091 213.876 26.1818C213.876 24.9545 214.098 23.8939 214.541 23C214.984 22.1061 215.592 21.4167 216.365 20.9318C217.138 20.447 218.02 20.2045 219.013 20.2045C220.005 20.2045 220.888 20.447 221.661 20.9318C222.433 21.4167 223.041 22.1061 223.484 23C223.928 23.8939 224.149 24.9545 224.149 26.1818ZM222.786 26.1818C222.786 25.1742 222.617 24.3239 222.28 23.6307C221.946 22.9375 221.494 22.4129 220.922 22.0568C220.354 21.7008 219.717 21.5227 219.013 21.5227C218.308 21.5227 217.67 21.7008 217.098 22.0568C216.53 22.4129 216.077 22.9375 215.74 23.6307C215.407 24.3239 215.24 25.1742 215.24 26.1818C215.24 27.1894 215.407 28.0398 215.74 28.733C216.077 29.4261 216.53 29.9508 217.098 30.3068C217.67 30.6629 218.308 30.8409 219.013 30.8409C219.717 30.8409 220.354 30.6629 220.922 30.3068C221.494 29.9508 221.946 29.4261 222.28 28.733C222.617 28.0398 222.786 27.1894 222.786 26.1818ZM235.746 20.3636V32H234.382L228.041 22.8636H227.928V32H226.518V20.3636H227.882L234.246 29.5227H234.359V20.3636H235.746ZM242.429 21.6136V20.3636H251.156V21.6136H247.497V32H246.088V21.6136H242.429ZM253.331 32V20.3636H254.74V25.5455H260.945V20.3636H262.354V32H260.945V26.7955H254.74V32H253.331ZM265.175 32V20.3636H272.197V21.6136H266.584V25.5455H271.834V26.7955H266.584V30.75H272.288V32H265.175Z" fill="white"/>
<path d="M119.526 66.0723H115.571L121.597 48.6177H126.352L132.369 66.0723H128.415L124.043 52.6064H123.906L119.526 66.0723ZM119.278 59.2115H128.619V62.0922H119.278V59.2115ZM134.47 66.0723V48.6177H141.357C142.68 48.6177 143.808 48.8706 144.74 49.3762C145.672 49.8762 146.382 50.5723 146.871 51.4643C147.365 52.3507 147.612 53.3734 147.612 54.5325C147.612 55.6916 147.362 56.7143 146.862 57.6007C146.362 58.487 145.638 59.1774 144.689 59.6717C143.746 60.166 142.604 60.4132 141.263 60.4132H136.874V57.4558H140.666C141.376 57.4558 141.962 57.3336 142.422 57.0893C142.888 56.8393 143.234 56.4956 143.462 56.0581C143.695 55.6149 143.811 55.1064 143.811 54.5325C143.811 53.9529 143.695 53.4473 143.462 53.0154C143.234 52.5779 142.888 52.2399 142.422 52.0012C141.956 51.7569 141.365 51.6348 140.649 51.6348H138.161V66.0723H134.47ZM150.009 66.0723V48.6177H156.896C158.219 48.6177 159.347 48.8706 160.279 49.3762C161.211 49.8762 161.921 50.5723 162.41 51.4643C162.904 52.3507 163.151 53.3734 163.151 54.5325C163.151 55.6916 162.901 56.7143 162.401 57.6007C161.901 58.487 161.177 59.1774 160.228 59.6717C159.285 60.166 158.143 60.4132 156.802 60.4132H152.413V57.4558H156.205C156.915 57.4558 157.501 57.3336 157.961 57.0893C158.427 56.8393 158.773 56.4956 159.001 56.0581C159.234 55.6149 159.35 55.1064 159.35 54.5325C159.35 53.9529 159.234 53.4473 159.001 53.0154C158.773 52.5779 158.427 52.2399 157.961 52.0012C157.495 51.7569 156.904 51.6348 156.188 51.6348H153.7V66.0723H150.009ZM165.548 66.0723V48.6177H169.239V63.0297H176.722V66.0723H165.548ZM179.165 66.0723V48.6177H190.927V51.6603H182.856V55.8194H190.322V58.862H182.856V63.0297H190.961V66.0723H179.165ZM208.884 53.6376C208.816 52.9501 208.523 52.416 208.006 52.0353C207.489 51.6547 206.788 51.4643 205.901 51.4643C205.299 51.4643 204.79 51.5495 204.376 51.72C203.961 51.8848 203.643 52.1149 203.421 52.4103C203.205 52.7058 203.097 53.041 203.097 53.416C203.086 53.7285 203.151 54.0012 203.293 54.2342C203.441 54.4672 203.643 54.6689 203.898 54.8393C204.154 55.0041 204.45 55.149 204.785 55.274C205.12 55.3933 205.478 55.4956 205.859 55.5808L207.427 55.9558C208.188 56.1262 208.887 56.3535 209.523 56.6376C210.16 56.9217 210.711 57.2711 211.177 57.6859C211.643 58.1007 212.004 58.5893 212.259 59.1518C212.521 59.7143 212.654 60.3592 212.66 61.0865C212.654 62.1547 212.381 63.0808 211.842 63.8649C211.308 64.6433 210.535 65.2484 209.523 65.6802C208.518 66.1064 207.305 66.3194 205.884 66.3194C204.475 66.3194 203.248 66.1035 202.202 65.6717C201.163 65.2399 200.35 64.6007 199.765 63.7541C199.185 62.9018 198.881 61.8478 198.853 60.5922H202.424C202.464 61.1774 202.631 61.666 202.927 62.0581C203.228 62.4444 203.629 62.737 204.129 62.9359C204.634 63.1291 205.205 63.2257 205.842 63.2257C206.467 63.2257 207.009 63.1348 207.469 62.9529C207.935 62.7711 208.296 62.5183 208.552 62.1944C208.808 61.8706 208.935 61.4984 208.935 61.0779C208.935 60.6859 208.819 60.3564 208.586 60.0893C208.359 59.8223 208.023 59.595 207.58 59.4075C207.143 59.22 206.606 59.0495 205.969 58.8961L204.069 58.4189C202.597 58.0609 201.435 57.5012 200.583 56.7399C199.731 55.9785 199.308 54.9529 199.313 53.6632C199.308 52.6064 199.589 51.6831 200.157 50.8933C200.731 50.1035 201.518 49.487 202.518 49.0439C203.518 48.6007 204.654 48.3791 205.927 48.3791C207.222 48.3791 208.353 48.6007 209.319 49.0439C210.29 49.487 211.046 50.1035 211.586 50.8933C212.126 51.6831 212.404 52.5978 212.421 53.6376H208.884ZM214.477 51.6603V48.6177H228.812V51.6603H223.469V66.0723H219.821V51.6603H214.477ZM246.416 57.345C246.416 59.2484 246.055 60.8677 245.334 62.2029C244.618 63.5382 243.641 64.5581 242.402 65.2626C241.169 65.9615 239.783 66.3109 238.243 66.3109C236.692 66.3109 235.3 65.9586 234.067 65.2541C232.834 64.5495 231.859 63.5297 231.143 62.1944C230.428 60.8592 230.07 59.2427 230.07 57.345C230.07 55.4416 230.428 53.8223 231.143 52.487C231.859 51.1518 232.834 50.1348 234.067 49.4359C235.3 48.7314 236.692 48.3791 238.243 48.3791C239.783 48.3791 241.169 48.7314 242.402 49.4359C243.641 50.1348 244.618 51.1518 245.334 52.487C246.055 53.8223 246.416 55.4416 246.416 57.345ZM242.675 57.345C242.675 56.112 242.49 55.0723 242.121 54.2257C241.757 53.3791 241.243 52.737 240.578 52.2995C239.913 51.862 239.135 51.6433 238.243 51.6433C237.351 51.6433 236.572 51.862 235.908 52.2995C235.243 52.737 234.726 53.3791 234.357 54.2257C233.993 55.0723 233.811 56.112 233.811 57.345C233.811 58.5779 233.993 59.6177 234.357 60.4643C234.726 61.3109 235.243 61.9529 235.908 62.3904C236.572 62.8279 237.351 63.0467 238.243 63.0467C239.135 63.0467 239.913 62.8279 240.578 62.3904C241.243 61.9529 241.757 61.3109 242.121 60.4643C242.49 59.6177 242.675 58.5779 242.675 57.345ZM249.15 66.0723V48.6177H256.036C257.354 48.6177 258.479 48.8535 259.411 49.3251C260.349 49.791 261.062 50.4529 261.55 51.3109C262.045 52.1632 262.292 53.166 262.292 54.3194C262.292 55.4785 262.042 56.4757 261.542 57.3109C261.042 58.1404 260.317 58.7768 259.369 59.22C258.425 59.6632 257.283 59.8848 255.942 59.8848H251.332V56.9189H255.346C256.05 56.9189 256.636 56.8223 257.102 56.6291C257.567 56.4359 257.914 56.1461 258.141 55.7598C258.374 55.3734 258.491 54.8933 258.491 54.3194C258.491 53.7399 258.374 53.2512 258.141 52.8535C257.914 52.4558 257.565 52.1547 257.093 51.9501C256.627 51.7399 256.039 51.6348 255.329 51.6348H252.84V66.0723H249.15ZM258.576 58.1291L262.914 66.0723H258.84L254.596 58.1291H258.576ZM264.9 66.0723V48.6177H276.661V51.6603H268.59V55.8194H276.056V58.862H268.59V63.0297H276.695V66.0723H264.9Z" fill="white"/>
</svg>
