<svg width="1054" height="368" viewBox="0 0 1054 368" fill="none" xmlns="http://www.w3.org/2000/svg">
<g filter="url(#filter0_d_2002_1878)">
<path d="M22.6292 114.075C18.3062 113.618 15.1082 110.349 15.4863 106.773C15.8644 103.197 19.6753 100.669 23.9983 101.126V101.126C89.1188 163.479 175.33 206.261 263.651 188.157C318.121 176.992 370.749 157.126 419.433 129.047L498.582 83.3972C580.58 36.1045 702.29 -7.69747 791.484 23.9997C823.696 35.4468 853.888 51.9298 880.936 72.8346L1044.86 199.527C1049.18 199.984 1052.38 203.253 1052 206.829C1051.62 210.405 1047.81 212.933 1043.49 212.476L879.566 85.7838C852.519 64.8789 822.327 48.3959 790.115 36.9489C700.921 5.25167 579.211 49.0535 497.213 96.3463L418.064 141.996C369.38 170.075 316.752 189.941 262.282 201.106C173.96 219.211 87.7497 176.428 22.6292 114.075V114.075Z" fill="white"/>
<path d="M19.2271 146.252C14.9041 145.795 11.7062 142.526 12.0842 138.95C12.4623 135.374 16.2733 132.846 20.5962 133.303V133.303C85.7167 195.655 171.927 238.438 260.249 220.334C314.719 209.169 367.346 189.302 416.031 161.223L487.759 119.854C574.466 69.8453 701.838 25.5275 796.154 59.0448C823.082 68.6142 848.703 81.5221 872.419 97.4665L1043.49 212.476C1047.81 212.933 1051.01 216.203 1050.63 219.778C1050.25 223.354 1046.44 225.882 1042.12 225.425L871.05 110.416C847.334 94.4712 821.713 81.5633 794.785 71.9939C700.469 38.4766 573.097 82.7943 486.39 132.803L414.662 174.172C365.977 202.251 313.35 222.118 258.88 233.283C170.558 251.387 84.3476 208.604 19.2271 146.252V146.252Z" fill="white"/>
<path d="M15.825 178.428C11.5021 177.971 8.30409 174.702 8.68217 171.126C9.06024 167.551 12.8712 165.022 17.1942 165.479V165.479C82.3146 227.832 168.525 270.615 256.847 252.511C311.317 241.346 363.944 221.479 412.629 193.4L474.375 157.788C567.415 104.126 702.405 59.1145 803.611 95.0803C823.369 102.102 842.489 110.805 860.761 121.093L1044.29 224.433C1048.61 224.89 1051.81 228.16 1051.43 231.735C1051.05 235.311 1047.24 237.84 1042.92 237.382L859.392 134.042C841.12 123.754 822 115.051 802.242 108.029C701.036 72.0636 566.046 117.075 473.006 170.737L411.26 206.349C362.575 234.428 309.948 254.295 255.478 265.46C167.156 283.564 80.9455 240.781 15.825 178.428V178.428Z" fill="white"/>
<path d="M12.4229 210.605C8.09997 210.148 4.90201 206.879 5.28009 203.303C5.65816 199.727 9.46911 197.199 13.7921 197.656V197.656C78.9125 260.008 165.123 302.791 253.445 284.687C307.915 273.522 360.542 253.655 409.227 225.576L443.676 205.708C554.037 142.057 709.855 95.1475 829.901 137.809L1044.23 238.36C1048.55 238.817 1051.75 242.087 1051.37 245.662C1050.99 249.238 1047.18 251.767 1042.86 251.309L828.532 150.758C708.486 108.097 552.668 155.006 442.307 218.657L407.858 238.525C359.173 266.604 306.546 286.471 252.076 297.636C163.754 315.74 77.5434 272.957 12.4229 210.605V210.605Z" fill="white"/>
<path d="M9.02087 242.782C4.69789 242.325 1.49993 239.055 1.87801 235.48C2.25608 231.904 6.06703 229.375 10.39 229.833V229.833C75.5104 292.185 161.721 334.968 250.043 316.864C304.513 305.699 357.14 285.832 405.825 257.753L440.274 237.884C550.635 174.233 706.453 127.324 826.499 169.985L1044.78 244.646C1049.1 245.104 1052.3 248.373 1051.92 251.949C1051.54 255.524 1047.73 258.053 1043.41 257.596L825.13 182.934C705.083 140.273 549.266 187.182 438.905 250.833L404.456 270.702C355.771 298.781 303.143 318.648 248.673 329.813C160.352 347.917 74.1412 305.134 9.02087 242.782V242.782Z" fill="white"/>
<path d="M1043.38 212.64L1043.42 212.667L1043.47 212.672C1047.72 213.122 1050.8 216.323 1050.43 219.758C1050.2 221.966 1048.6 223.782 1046.35 224.678C1045.72 224.467 1045.05 224.318 1044.35 224.242L1021.95 211.628L871.16 110.252C847.431 94.2983 821.794 81.3829 794.851 71.808C747.643 55.0315 692.178 57.7389 637.688 70.8844C583.195 84.0305 529.658 107.62 486.292 132.632L414.564 174.001C365.897 202.07 313.29 221.929 258.841 233.09C170.608 251.176 84.4603 208.439 19.3636 146.109L19.2271 146.252L19.2478 146.056C14.9968 145.606 11.9173 142.405 12.2804 138.97C12.6417 135.554 16.2859 133.076 20.5088 133.492C85.6473 195.842 171.9 238.645 260.289 220.527C314.779 209.358 367.427 189.484 416.13 161.394L487.858 120.025C531.198 95.0277 584.701 71.4544 639.15 58.3189C693.601 45.1827 748.98 42.4899 796.088 59.2307C823 68.7946 848.607 81.695 872.309 97.6302L1043.37 212.632L1043.38 212.64ZM1051.8 206.808C1051.44 210.228 1047.79 212.708 1043.56 212.286L879.687 85.6277C852.623 64.7101 822.412 48.217 790.181 36.763C745.533 20.8961 692.763 23.9303 640.918 36.8349C589.07 49.7402 538.126 72.522 497.114 96.1754L417.966 141.825C369.299 169.893 316.692 189.752 262.243 200.913C174.01 218.999 87.8624 176.262 22.7656 113.933L22.6292 114.075L22.6499 113.879C18.3988 113.43 15.3194 110.228 15.6825 106.794C16.0437 103.378 19.688 100.899 23.9108 101.316C89.0493 163.665 175.302 206.469 263.691 188.351C318.181 177.181 370.829 157.307 419.532 129.217L498.68 83.5682C539.667 59.9288 590.577 37.1633 642.382 24.2687C694.19 11.3734 746.873 8.35529 791.418 24.1856C823.61 35.6257 853.784 52.0986 880.815 72.9907L1044.74 199.683L1044.78 199.717L1044.84 199.723C1049.09 200.173 1052.17 203.374 1051.8 206.808ZM1044.27 224.63C1044.77 224.683 1045.26 224.774 1045.72 224.899C1044.64 225.231 1043.44 225.36 1042.19 225.234L1026.1 214.415L1044.19 224.605L1044.23 224.625L1044.27 224.63ZM1021.74 211.964L1042.01 225.589L1042.05 225.616L1042.1 225.621C1043.61 225.782 1045.08 225.581 1046.36 225.096C1049.48 226.193 1051.54 228.874 1051.24 231.715C1050.87 235.138 1047.22 237.62 1042.98 237.19L859.488 133.87C841.207 123.576 822.077 114.869 802.308 107.844C751.656 89.8433 692.565 92.1111 634.517 105.581C576.467 119.051 519.441 143.727 472.907 170.566L411.161 206.178C362.495 234.246 309.887 254.106 255.438 265.266C167.206 283.352 81.0582 240.616 15.9615 178.286L15.825 178.428L15.8458 178.232C11.5947 177.783 8.51526 174.581 8.87837 171.147C9.23957 167.731 12.8839 165.252 17.1067 165.669C82.2452 228.018 168.498 270.822 256.887 252.704C311.377 241.535 364.025 221.66 412.728 193.571L474.473 157.959C520.98 131.136 577.969 106.476 635.975 93.0159C693.983 79.5557 752.99 77.3006 803.545 95.2662C823.292 102.284 842.402 110.982 860.664 121.265L1021.74 211.964ZM12.5594 210.463L12.4229 210.605L12.4437 210.409C8.19259 209.959 5.11318 206.758 5.47629 203.324C5.83749 199.907 9.48178 197.429 13.7046 197.845C78.8431 260.195 165.096 302.998 253.485 284.88C307.975 273.711 360.622 253.837 409.326 225.747L443.774 205.879C498.94 174.062 565.465 146.43 633.197 132.084C700.928 117.738 769.85 116.68 829.826 137.991C829.829 137.992 829.832 137.994 829.835 137.995L1044.15 238.539L1044.18 238.553L1044.21 238.557C1048.46 239.006 1051.54 242.208 1051.18 245.642C1051.11 246.275 1050.93 246.875 1050.65 247.431C1049.33 245.846 1047.24 244.714 1044.82 244.453L985.347 224.109L828.616 150.579L828.607 150.575L828.598 150.572C768.529 129.225 699.523 130.292 631.747 144.647C563.968 159.003 497.404 186.652 442.208 218.486L407.759 238.354C359.093 266.423 306.485 286.282 252.036 297.443C163.804 315.529 77.6561 272.792 12.5594 210.463ZM1044.76 244.843C1047.17 245.098 1049.21 246.239 1050.45 247.807C1049.12 250.045 1046.19 251.452 1042.91 251.117L988.628 225.649L1044.72 244.833L1044.74 244.84L1044.76 244.843ZM9.15731 242.639L9.02087 242.782L9.04161 242.585C4.79051 242.136 1.7111 238.935 2.07421 235.5C2.43541 232.084 6.0797 229.605 10.3025 230.022C75.441 292.372 161.693 335.175 250.082 317.057C304.573 305.888 357.22 286.014 405.923 257.924L440.372 238.055C495.538 206.239 562.063 178.607 629.795 164.261C697.529 149.914 766.455 148.857 826.433 170.171L826.435 170.172L985.199 224.476L1042.78 251.488L1042.81 251.502L1042.84 251.506C1046.17 251.858 1049.24 250.465 1050.71 248.151C1051.48 249.273 1051.87 250.583 1051.73 251.928C1051.36 255.356 1047.7 257.84 1043.45 257.402L825.196 182.749C765.127 161.402 696.121 162.468 628.344 176.824C560.566 191.18 494.002 218.828 438.806 250.663L404.357 270.531C355.691 298.6 303.083 318.459 248.634 329.62C160.402 347.705 74.2539 304.969 9.15731 242.639Z" stroke="black" stroke-width="0.394585"/>
</g>
<path fill-rule="evenodd" clip-rule="evenodd" d="M225.663 183.081C223.707 182.4 221.529 183.099 220.401 184.835C209.628 201.412 225.032 229.08 234.618 241.431C231.542 249.869 226.562 270.87 231.254 287.367C243.847 324.844 271.631 320.251 283.948 313.271L291.791 324.097C303.011 340.169 294.919 345.525 289.471 346.194C296.358 340.616 285.526 323.557 275.733 326.185C273.953 326.663 272.207 327.791 270.609 329.757C259.564 343.335 280.989 365.089 300.286 352.367C300.528 352.207 300.763 352.044 300.991 351.876C315.222 341.405 299.597 316.943 289.838 305.858C304.783 279.639 285.552 258.527 267.19 258.222C265.53 258.195 263.877 258.337 262.257 258.661C260.591 258.995 258.96 259.52 257.392 260.25L249.549 249.424C253.993 247.355 254.076 192.969 225.663 183.081V183.081ZM237.006 230.511C232.569 224.326 225.35 209.691 231.967 200.632C232.57 200.157 233.135 200.053 233.658 200.252C236.706 201.415 238.376 212.872 238.325 221.491C238.3 225.653 237.873 229.153 237.006 230.511ZM251.146 266.895L246.982 259.96C243.317 269.139 238.782 290.493 249.964 302.473C263.604 313.309 274.028 309.016 277.535 305.515L275.39 300.909C274.594 304.549 270.032 309.662 258.151 300.997C244.04 290.754 247.601 273.994 251.146 266.895ZM273.577 298.017C270.799 295.73 264.693 289.17 262.49 281.229C259.927 287.092 258.557 298.659 273.577 298.017ZM269.246 276.681C273.743 282.994 282.879 295.928 283.451 297.156C284.165 298.691 287.28 275.29 269.246 276.681Z" fill="#FFF106"/>
<path d="M246.982 259.96L251.146 266.895C247.601 273.994 244.04 290.754 258.151 300.997C270.032 309.662 274.594 304.549 275.39 300.909L277.535 305.515C274.028 309.016 263.604 313.309 249.964 302.473C238.782 290.493 243.317 269.139 246.982 259.96Z" fill="url(#paint0_linear_2002_1878)"/>
<path d="M225.663 183.081C254.076 192.969 253.993 247.355 249.549 249.424L255.459 248.073C256.59 241.475 258.521 226.565 252.066 206.685C246.903 190.782 232.312 184.323 225.663 183.081Z" fill="url(#paint1_linear_2002_1878)"/>
<path d="M249.549 249.424L257.392 260.25C258.96 259.52 260.591 258.995 262.257 258.661L255.459 248.073L249.549 249.424Z" fill="#F6FAB9"/>
<path d="M267.19 258.222C285.552 258.527 304.783 279.639 289.838 305.858L294.444 303.713C298.173 299.018 303.651 285.975 295.724 271.358C287.797 256.741 273.398 256.51 267.19 258.222Z" fill="url(#paint2_linear_2002_1878)"/>
<path d="M294.444 303.713L289.838 305.858C299.597 316.943 315.222 341.405 300.991 351.876C320.757 342.169 304.862 315.723 294.444 303.713Z" fill="url(#paint3_linear_2002_1878)"/>
<path d="M275.733 326.185C285.526 323.557 296.358 340.616 289.471 346.194C290.507 346.067 291.638 345.77 292.714 345.263C296.759 341.09 295.597 319.283 275.733 326.185Z" fill="url(#paint4_linear_2002_1878)"/>
<path d="M231.967 200.632C225.35 209.691 232.569 224.326 237.006 230.511C237.873 229.153 238.3 225.653 238.325 221.491C232.971 217.258 232.983 205.568 233.658 200.252C233.135 200.053 232.57 200.157 231.967 200.632Z" fill="url(#paint5_linear_2002_1878)"/>
<path d="M308.636 154.381L346.968 200.222C351.282 211.192 343.903 223.803 337.453 226.003C343.508 224.93 354.808 218.354 351.568 200.633L313.445 155.042C317.963 156.372 318.706 150.643 328.424 150.604C323.057 148.543 319.471 150.003 317.203 151.9C314.447 154.204 310.977 154.126 308.636 154.381Z" fill="#3D454E"/>
<path d="M339.354 197.225C333.703 201.666 324.33 213.363 332.041 224.621C333.493 226.358 335.427 226.694 337.453 226.003C343.903 223.803 351.282 211.192 346.968 200.222L308.636 154.381C310.977 154.126 314.447 154.204 317.203 151.9C319.471 150.003 323.057 148.543 328.424 150.604C331.464 151.772 334.664 154.327 337.409 159.266C344.999 172.925 346.247 169.327 350.136 169.906C348.629 168.612 344.716 163.627 341.121 154.034C336.627 142.042 320.027 141.025 311.757 145.387C308.622 145.88 301.64 146.014 298.791 142.608L296.537 144.493L339.354 197.225Z" fill="#90B6FF"/>
<path d="M341.121 154.034C344.716 163.627 348.629 168.612 350.136 169.906L355.155 170.817C354.736 170.316 348.773 167.568 344.386 156.411C339.851 144.88 331.572 144.141 329.666 144.032C334.686 145.507 339.112 148.675 341.121 154.034Z" fill="#3D454E"/>
<path d="M885.961 89.1173L850.264 137.039C840.595 143.78 826.616 139.529 822.98 133.765C825.428 139.406 834.447 148.872 850.932 141.608L886.434 93.9485C886.189 98.6514 891.934 98.0449 894.226 107.489C894.986 101.79 892.734 98.6409 890.362 96.8745C887.482 94.7287 886.752 91.3352 885.961 89.1173Z" fill="#3D454E"/>
<path d="M851.414 128.937C845.783 124.471 832.23 118.067 823.068 128.18C821.716 129.995 821.838 131.955 822.98 133.765C826.616 139.529 840.595 143.78 850.264 137.039L885.961 89.1173C886.752 91.3352 887.482 94.7287 890.362 96.8745C892.734 98.6409 894.986 101.79 894.226 107.489C893.795 110.717 892.053 114.422 887.885 118.238C876.36 128.79 880.149 129.17 880.489 133.087C881.397 131.321 885.339 126.358 893.836 120.635C904.458 113.482 901.596 97.099 895.434 90.0659C894.227 87.1311 892.477 80.3709 895.129 76.8096L892.773 75.054L851.414 128.937Z" fill="#4FFCB7"/>
<path d="M893.836 120.635C885.339 126.358 881.397 131.321 880.489 133.087L880.767 138.18C881.157 137.656 882.447 131.218 892.281 124.363C902.446 117.276 901.243 109.051 900.907 107.172C900.637 112.397 898.583 117.438 893.836 120.635Z" fill="#3D454E"/>
<path d="M648.636 29.3811L686.968 75.2224C691.282 86.1919 683.903 98.8033 677.453 101.003C683.508 99.9301 694.808 93.3541 691.568 75.6327L653.445 30.042C657.963 31.3722 658.706 25.6432 668.424 25.6045C663.057 23.543 659.471 25.0032 657.203 26.9C654.447 29.2041 650.977 29.1263 648.636 29.3811Z" fill="#60715E"/>
<path d="M679.354 72.2245C673.703 76.6657 664.33 88.3628 672.041 99.6214C673.493 101.358 675.427 101.694 677.453 101.003C683.903 98.8033 691.282 86.1919 686.968 75.2224L648.636 29.3811C650.977 29.1263 654.447 29.2041 657.203 26.9C659.471 25.0032 663.057 23.543 668.424 25.6045C671.464 26.7722 674.664 29.3269 677.409 34.2661C684.999 47.9247 686.247 44.3271 690.136 44.9059C688.629 43.6124 684.716 38.627 681.121 29.0338C676.627 17.0423 660.027 16.025 651.757 20.387C648.622 20.8801 641.64 21.0144 638.791 17.6077L636.537 19.4928L679.354 72.2245Z" fill="#0AFF25"/>
<path d="M681.121 29.0338C684.716 38.627 688.629 43.6124 690.136 44.9059L695.155 45.8172C694.736 45.3162 688.773 42.5678 684.386 31.4114C679.851 19.8799 671.572 19.1413 669.666 19.0325C674.686 20.5072 679.112 23.6745 681.121 29.0338Z" fill="#60715E"/>
<path d="M421.1 177L446.3 272.4L449 267.9L424.7 177.9L421.1 177Z" fill="#EBFFA4"/>
<path d="M446.3 272.4L421.1 177L413 178.8L435.096 260.25L435.95 263.4C433.746 262.959 426.793 264.353 421.17 267.9C416.854 270.622 413.322 274.611 413.322 280.011C413.321 284.364 415.872 288.722 419.913 290.342C430.105 294.427 443.118 280.929 446.3 272.4Z" fill="#6FD70B"/>
<path d="M421.17 267.9C426.793 264.353 433.746 262.959 435.95 263.4L435.096 260.25C428.293 260.97 422.977 265.65 421.17 267.9Z" fill="#1B1F1B"/>
<path d="M751.1 52L776.3 147.4L779 142.9L754.7 52.9L751.1 52Z" fill="#7C454A"/>
<path d="M776.3 147.4L751.1 52L743 53.8L765.096 135.25L765.95 138.4C763.746 137.959 756.793 139.353 751.17 142.9C746.854 145.622 743.322 149.611 743.322 155.011C743.321 159.364 745.872 163.722 749.913 165.342C760.105 169.427 773.118 155.929 776.3 147.4Z" fill="#D61A27"/>
<path d="M751.17 142.9C756.793 139.353 763.746 137.959 765.95 138.4L765.096 135.25C758.293 135.97 752.977 140.65 751.17 142.9Z" fill="#1B1F1B"/>
<path d="M513.512 151.701L506.584 78.1341L541.529 73.4278L545.239 72.9281L550.939 133.458C549.815 133.591 548.563 133.802 547.243 134.103L545.407 134.568C536.703 136.999 526.329 143.178 529.529 155.517C533.879 165.128 552.504 163.374 558.189 140.604L550.033 54.0001L497.187 61.482L497.275 62.4132L505.109 145.603C504.148 145.599 503.099 145.645 501.991 145.75C500.971 145.846 499.901 145.992 498.806 146.197C489.186 147.989 477.554 154.238 479.868 170.214C480.03 171.013 480.288 171.718 480.631 172.335C486.491 182.876 517.083 167.637 513.512 151.701Z" fill="#43BDF1"/>
<path d="M550.939 133.458L545.239 72.9281L541.529 73.4278L547.243 134.103C548.563 133.802 549.815 133.591 550.939 133.458Z" fill="#9ED5ED"/>
<path d="M505.109 145.603L497.275 62.4132L494.287 63.9472L501.991 145.75C503.099 145.645 504.148 145.599 505.109 145.603Z" fill="#9ED5ED"/>
<path d="M479.868 170.214C477.554 154.238 489.186 147.989 498.806 146.197C486.696 142.953 466.283 164.166 480.631 172.335C480.288 171.718 480.03 171.013 479.868 170.214Z" fill="url(#paint6_linear_2002_1878)"/>
<path d="M534.027 160.036C532.05 159.115 530.462 157.577 529.529 155.517C526.329 143.178 536.703 136.999 545.407 134.568C529.595 132.925 511.479 160.035 534.027 160.036Z" fill="url(#paint7_linear_2002_1878)"/>
<path fill-rule="evenodd" clip-rule="evenodd" d="M621.88 74.2066C621.056 73.4062 619.797 73.2475 618.823 73.8566C609.52 79.6724 610.788 97.1992 612.718 105.658C609.193 109.182 601.769 118.58 600.265 127.978C597.822 149.781 612.874 153.979 620.705 153.352L622.115 160.635C623.994 171.349 618.669 172.148 615.772 171.208C620.543 170.015 619.09 158.896 613.548 157.925C612.54 157.748 611.398 157.907 610.133 158.521C601.397 162.765 607.079 178.726 619.766 176.847C619.926 176.823 620.082 176.796 620.236 176.765C629.848 174.831 627.717 158.865 625.405 151.003C639.065 141.314 634.336 126.189 625.17 121.734C624.341 121.332 623.476 121.016 622.585 120.8C621.669 120.577 620.726 120.459 619.766 120.459L618.356 113.176C621.077 113.176 633.858 85.8363 621.88 74.2066V74.2066ZM616.477 100.724C615.693 96.5731 615.49 87.5198 620.941 84.5124C621.355 84.4148 621.664 84.4946 621.88 84.7178C623.141 86.0164 621.298 92.1714 619.253 96.4948C618.265 98.5829 617.231 100.244 616.477 100.724ZM615.067 122.339L614.597 117.875C610.603 121.634 603.32 131.314 606.139 139.96C610.462 148.606 616.712 148.888 619.296 147.948V145.129C618.043 146.774 614.55 148.277 610.603 141.135C605.904 132.677 611.621 125.08 615.067 122.339ZM619.061 143.249C618.2 141.448 616.664 136.718 617.416 132.207C614.754 134.556 611.355 140.054 619.061 143.249ZM621.88 131.502C622.664 135.731 624.23 144.377 624.23 145.129C624.23 146.069 631.278 135.026 621.88 131.502Z" fill="#FF7CFC"/>
<path d="M614.597 117.875L615.067 122.339C611.621 125.08 605.904 132.677 610.603 141.135C614.55 148.277 618.043 146.774 619.296 145.129V147.948C616.712 148.888 610.462 148.606 606.139 139.96C603.32 131.314 610.603 121.634 614.597 117.875Z" fill="url(#paint8_linear_2002_1878)"/>
<path d="M621.88 74.2066C633.858 85.8363 621.077 113.176 618.356 113.176L621.645 113.881C623.76 110.827 628.224 103.778 629.634 92.2657C630.761 83.0558 624.935 76.3888 621.88 74.2066Z" fill="url(#paint9_linear_2002_1878)"/>
<path d="M618.356 113.176L619.766 120.459C620.726 120.459 621.669 120.577 622.585 120.8L621.645 113.881L618.356 113.176Z" fill="#F6FAB9"/>
<path d="M625.17 121.734C634.336 126.189 639.065 141.314 625.405 151.003H628.224C631.2 149.515 637.011 144.236 636.447 135.026C635.883 125.816 628.694 122.327 625.17 121.734Z" fill="url(#paint10_linear_2002_1878)"/>
<path d="M628.224 151.003H625.405C627.717 158.865 629.848 174.831 620.236 176.765C632.453 176.512 630.652 159.484 628.224 151.003Z" fill="url(#paint11_linear_2002_1878)"/>
<path d="M613.548 157.925C619.09 158.896 620.543 170.015 615.772 171.208C616.323 171.387 616.961 171.503 617.621 171.499C620.633 170.348 625.157 159.106 613.548 157.925Z" fill="url(#paint12_linear_2002_1878)"/>
<path d="M620.941 84.5124C615.49 87.5198 615.693 96.5731 616.477 100.724C617.231 100.244 618.265 98.5829 619.253 96.4948C617.551 93.1115 620.296 87.2337 621.88 84.7178C621.664 84.4946 621.355 84.4148 620.941 84.5124Z" fill="url(#paint13_linear_2002_1878)"/>
<defs>
<filter id="filter0_d_2002_1878" x="0.269317" y="13.2266" width="1053.34" height="326.69" filterUnits="userSpaceOnUse" color-interpolation-filters="sRGB">
<feFlood flood-opacity="0" result="BackgroundImageFix"/>
<feColorMatrix in="SourceAlpha" type="matrix" values="0 0 0 0 0 0 0 0 0 0 0 0 0 0 0 0 0 0 127 0" result="hardAlpha"/>
<feOffset dy="4.34043"/>
<feGaussianBlur stdDeviation="0.78917"/>
<feComposite in2="hardAlpha" operator="out"/>
<feColorMatrix type="matrix" values="0 0 0 0 0 0 0 0 0 0 0 0 0 0 0 0 0 0 0.45 0"/>
<feBlend mode="normal" in2="BackgroundImageFix" result="effect1_dropShadow_2002_1878"/>
<feBlend mode="normal" in="SourceGraphic" in2="effect1_dropShadow_2002_1878" result="shape"/>
</filter>
<linearGradient id="paint0_linear_2002_1878" x1="244.861" y1="259.547" x2="274.031" y2="307.146" gradientUnits="userSpaceOnUse">
<stop stop-color="#42382E"/>
<stop offset="0.465765" stop-color="#FFF8AB"/>
<stop offset="1" stop-color="#847643"/>
</linearGradient>
<linearGradient id="paint1_linear_2002_1878" x1="218.802" y1="183.877" x2="252.133" y2="250.089" gradientUnits="userSpaceOnUse">
<stop stop-color="#FFF292"/>
<stop offset="1" stop-color="#464D16"/>
</linearGradient>
<linearGradient id="paint2_linear_2002_1878" x1="266.428" y1="253.707" x2="293.037" y2="304.835" gradientUnits="userSpaceOnUse">
<stop stop-color="#80703A"/>
<stop offset="0.445" stop-color="#FFFAC6"/>
<stop offset="1" stop-color="#342803"/>
</linearGradient>
<linearGradient id="paint3_linear_2002_1878" x1="290.225" y1="303.809" x2="301.387" y2="351.854" gradientUnits="userSpaceOnUse">
<stop stop-color="#F9FDBD"/>
<stop offset="0.598434" stop-color="#9C8A15"/>
<stop offset="0.98" stop-color="#1F2800"/>
</linearGradient>
<linearGradient id="paint4_linear_2002_1878" x1="277.904" y1="324.492" x2="292.466" y2="345.734" gradientUnits="userSpaceOnUse">
<stop stop-color="#544E1E"/>
<stop offset="0.455" stop-color="#E4D477"/>
<stop offset="0.495" stop-color="#FFF78B"/>
<stop offset="1" stop-color="#4F531D"/>
</linearGradient>
<linearGradient id="paint5_linear_2002_1878" x1="230.561" y1="201.754" x2="237.34" y2="230.356" gradientUnits="userSpaceOnUse">
<stop stop-color="#000B00"/>
<stop offset="0.5" stop-color="#808041"/>
<stop offset="1" stop-color="#FFF481"/>
</linearGradient>
<linearGradient id="paint6_linear_2002_1878" x1="495.34" y1="144.957" x2="478.685" y2="170.952" gradientUnits="userSpaceOnUse">
<stop stop-color="#9ED5ED"/>
<stop offset="0.5" stop-color="white"/>
<stop offset="1" stop-color="#9ED5ED"/>
</linearGradient>
<linearGradient id="paint7_linear_2002_1878" x1="548.562" y1="131.49" x2="478.685" y2="170.952" gradientUnits="userSpaceOnUse">
<stop stop-color="#9ED5ED"/>
<stop offset="0.5" stop-color="white"/>
<stop offset="1" stop-color="#9ED5ED"/>
</linearGradient>
<linearGradient id="paint8_linear_2002_1878" x1="613.627" y1="117.17" x2="617.151" y2="147.948" gradientUnits="userSpaceOnUse">
<stop stop-color="#FF7CFC"/>
<stop offset="0.465765" stop-color="#FFF8AB"/>
<stop offset="1" stop-color="#847643"/>
</linearGradient>
<linearGradient id="paint9_linear_2002_1878" x1="618.243" y1="73" x2="619.501" y2="114.116" gradientUnits="userSpaceOnUse">
<stop stop-color="#FF7CFC"/>
<stop offset="1" stop-color="#464D16"/>
</linearGradient>
<linearGradient id="paint10_linear_2002_1878" x1="625.844" y1="119.285" x2="627.254" y2="151.238" gradientUnits="userSpaceOnUse">
<stop stop-color="#FF7CFC"/>
<stop offset="0.445" stop-color="#FFFAC6"/>
<stop offset="1" stop-color="#342803"/>
</linearGradient>
<linearGradient id="paint11_linear_2002_1878" x1="626.079" y1="150.063" x2="620.44" y2="176.847" gradientUnits="userSpaceOnUse">
<stop stop-color="#FF7CFC"/>
<stop offset="0.598434" stop-color="#9C8A15"/>
<stop offset="0.98" stop-color="#1F2800"/>
</linearGradient>
<linearGradient id="paint12_linear_2002_1878" x1="615.037" y1="157.581" x2="617.386" y2="171.678" gradientUnits="userSpaceOnUse">
<stop stop-color="#FF7CFC"/>
<stop offset="0.455" stop-color="#E4D477"/>
<stop offset="0.495" stop-color="#FFF78B"/>
<stop offset="1" stop-color="#4F531D"/>
</linearGradient>
<linearGradient id="paint13_linear_2002_1878" x1="619.971" y1="84.7474" x2="616.681" y2="100.724" gradientUnits="userSpaceOnUse">
<stop stop-color="#000B00"/>
<stop offset="0.5" stop-color="#808041"/>
<stop offset="1" stop-color="#FF7CFC"/>
</linearGradient>
</defs>
</svg>
