<svg width="1920" height="50" viewBox="0 0 1920 50" fill="none" xmlns="http://www.w3.org/2000/svg">
<rect x="-138" y="1" width="2114" height="48" fill="white" stroke="black" stroke-width="2"/>
<path d="M232.487 40C231.651 40 230.892 39.6133 230.211 38.8398C229.54 38.0663 229.001 36.8803 228.594 35.2818C228.198 33.6832 228 31.6722 228 29.2486L228 12.4641H229.98V29.2873C229.98 30.7569 230.084 31.9687 230.293 32.9227C230.502 33.8766 230.794 34.5985 231.167 35.0884C231.552 35.5525 232.003 35.7845 232.52 35.7845C233.048 35.7845 233.499 35.5525 233.873 35.0884C234.258 34.5985 234.549 33.8766 234.747 32.9227C234.956 31.9687 235.061 30.7569 235.061 29.2873V12.4641H237.04V29.2486C237.04 31.6722 236.837 33.6832 236.43 35.2818C236.023 36.8803 235.473 38.0663 234.78 38.8398C234.087 39.6133 233.323 40 232.487 40Z" fill="black"/>
<path d="M239.759 39.5359V12.4641L241.738 12.4641L247.298 32.0331V12.4641L249.278 12.4641V39.5359H247.298L241.738 20.0055V39.5359H239.759Z" fill="black"/>
<path d="M252.095 39.5359V12.4641H254.075V35.9006H259.222V39.5359H252.095Z" fill="black"/>
<path d="M265.859 40C264.748 40 263.764 39.4199 262.906 38.2597C262.059 37.0737 261.394 35.4365 260.91 33.3481C260.426 31.2339 260.184 28.7845 260.184 26C260.184 23.2413 260.426 20.8177 260.91 18.7293C261.394 16.6151 262.059 14.965 262.906 13.779C263.764 12.593 264.748 12 265.859 12C266.992 12 267.987 12.593 268.845 13.779C269.703 14.965 270.368 16.6151 270.841 18.7293C271.314 20.8177 271.551 23.2413 271.551 26C271.551 28.7845 271.314 31.2339 270.841 33.3481C270.368 35.4365 269.703 37.0737 268.845 38.2597C267.987 39.4199 266.992 40 265.859 40ZM265.876 35.8232C266.613 35.8232 267.256 35.4365 267.806 34.663C268.356 33.8637 268.779 32.7293 269.076 31.2597C269.373 29.7901 269.522 28.0368 269.522 26C269.522 23.9632 269.373 22.2099 269.076 20.7403C268.779 19.2707 268.356 18.1492 267.806 17.3757C267.256 16.5764 266.613 16.1768 265.876 16.1768C265.139 16.1768 264.495 16.5764 263.946 17.3757C263.396 18.1492 262.967 19.2707 262.659 20.7403C262.362 22.2099 262.213 23.9632 262.213 26C262.213 28.0368 262.362 29.7901 262.659 31.2597C262.967 32.7293 263.396 33.8637 263.946 34.663C264.495 35.4365 265.139 35.8232 265.876 35.8232Z" fill="black"/>
<path d="M279.111 40C277.967 40 276.977 39.4199 276.141 38.2597C275.316 37.0737 274.678 35.4365 274.227 33.3481C273.787 31.2339 273.568 28.7974 273.568 26.0387C273.568 23.2541 273.787 20.8177 274.227 18.7293C274.678 16.6151 275.316 14.965 276.141 13.779C276.977 12.593 277.967 12 279.111 12C280.485 12 281.607 12.7993 282.476 14.3978C283.345 15.9705 283.895 18.2007 284.126 21.0884H281.948C281.794 19.5672 281.481 18.3683 281.008 17.4917C280.535 16.6151 279.897 16.1768 279.094 16.1768C278.368 16.1768 277.741 16.5764 277.213 17.3757C276.696 18.1492 276.295 19.2836 276.009 20.779C275.734 22.2486 275.597 24.0018 275.597 26.0387C275.597 28.0755 275.734 29.8287 276.009 31.2983C276.295 32.7422 276.696 33.8637 277.213 34.663C277.741 35.4365 278.368 35.8232 279.094 35.8232C279.897 35.8232 280.535 35.4236 281.008 34.6243C281.481 33.7993 281.794 32.6648 281.948 31.221H284.126C283.906 33.954 283.356 36.1068 282.476 37.6796C281.607 39.2265 280.485 40 279.111 40Z" fill="black"/>
<path d="M286.558 39.5359V12.4641H288.537V23.6409L292.893 12.4641H295.351L291.078 23.2155L295.45 39.5359H293.041L289.676 26.7735L288.537 29.674V39.5359H286.558Z" fill="black"/>
<path d="M297.492 39.5359V12.4641L299.472 12.4641V39.5359H297.492Z" fill="black"/>
<path d="M302.289 39.5359V12.4641H304.268L309.828 32.0331V12.4641H311.807V39.5359H309.828L304.268 20.0055V39.5359H302.289Z" fill="black"/>
<path d="M319.656 40C318.567 40 317.611 39.4199 316.786 38.2597C315.972 37.0994 315.339 35.488 314.889 33.4254C314.438 31.337 314.212 28.9006 314.212 26.116C314.212 23.3573 314.443 20.9208 314.905 18.8066C315.367 16.6667 316.027 15.0037 316.885 13.8177C317.754 12.6059 318.782 12 319.97 12C321.311 12 322.422 12.7606 323.302 14.2818C324.193 15.7772 324.77 17.8656 325.034 20.547H322.807C322.642 19.2063 322.318 18.1621 321.834 17.4144C321.35 16.6667 320.723 16.2928 319.953 16.2928C319.172 16.2928 318.501 16.6924 317.941 17.4917C317.391 18.2652 316.967 19.3996 316.67 20.895C316.384 22.3646 316.241 24.1179 316.241 26.1547C316.241 28.1915 316.384 29.9448 316.67 31.4144C316.967 32.884 317.385 34.0055 317.924 34.779C318.463 35.5267 319.095 35.9006 319.821 35.9006C320.899 35.9006 321.713 35.1915 322.263 33.7735C322.813 32.3554 323.137 30.512 323.236 28.2431H320.25V24.7238L325.232 24.7238V39.5359H323.418L323.253 35.8232C323 36.6998 322.708 37.4604 322.378 38.105C322.048 38.7238 321.658 39.2007 321.207 39.5359C320.767 39.8453 320.25 40 319.656 40Z" fill="black"/>
<path d="M335.734 39.5359L331.495 12.4641H333.623L336.939 34.779L340.304 12.4641L342.399 12.4641L338.143 39.5359H335.734Z" fill="black"/>
<path d="M342.11 39.5359L346.333 12.4641H348.544L352.767 39.5359H350.672L347.422 17.8785L344.172 39.5359H342.11ZM343.991 33.1547L344.518 29.4807H350.21L350.738 33.1547H343.991Z" fill="black"/>
<path d="M354.85 39.5359V12.4641L356.83 12.4641V35.9006H361.977V39.5359H354.85Z" fill="black"/>
<path d="M368.272 40C367.436 40 366.677 39.6133 365.995 38.8398C365.324 38.0663 364.785 36.8803 364.378 35.2818C363.982 33.6832 363.785 31.6722 363.785 29.2486V12.4641L365.764 12.4641V29.2873C365.764 30.7569 365.869 31.9687 366.078 32.9227C366.287 33.8766 366.578 34.5985 366.952 35.0884C367.337 35.5525 367.788 35.7845 368.305 35.7845C368.833 35.7845 369.284 35.5525 369.657 35.0884C370.042 34.5985 370.334 33.8766 370.532 32.9227C370.741 31.9687 370.845 30.7569 370.845 29.2873V12.4641L372.825 12.4641V29.2486C372.825 31.6722 372.621 33.6832 372.215 35.2818C371.808 36.8803 371.258 38.0663 370.565 38.8398C369.872 39.6133 369.108 40 368.272 40Z" fill="black"/>
<path d="M375.543 39.5359V12.4641L383 12.4641V16.2155H377.523V23.989H382.505V27.663H377.523V35.7845H383V39.5359H375.543Z" fill="black"/>
<path d="M29.4583 41C28.6278 41 27.8738 40.6133 27.1963 39.8398C26.5298 39.0663 25.9944 37.8803 25.5901 36.2818C25.1967 34.6832 25 32.6722 25 30.2486L25 13.4641H26.9669V30.2873C26.9669 31.7569 27.0707 32.9687 27.2783 33.9227C27.4859 34.8766 27.7755 35.5985 28.147 36.0884C28.5295 36.5525 28.9775 36.7845 29.491 36.7845C30.0155 36.7845 30.4635 36.5525 30.8351 36.0884C31.2175 35.5985 31.5071 34.8766 31.7038 33.9227C31.9114 32.9687 32.0152 31.7569 32.0152 30.2873V13.4641H33.9821V30.2486C33.9821 32.6722 33.7799 34.6832 33.3756 36.2818C32.9713 37.8803 32.425 39.0663 31.7366 39.8398C31.0481 40.6133 30.2887 41 29.4583 41Z" fill="black"/>
<path d="M36.6829 40.5359V13.4641L38.6498 13.4641L44.1735 33.0331V13.4641L46.1403 13.4641V40.5359H44.1735L38.6498 21.0055V40.5359H36.6829Z" fill="black"/>
<path d="M48.9394 40.5359V13.4641H50.9063V36.9006H56.0202V40.5359H48.9394Z" fill="black"/>
<path d="M62.615 41C61.5114 41 60.5334 40.4199 59.6811 39.2597C58.8397 38.0737 58.1786 36.4365 57.6978 34.3481C57.217 32.2339 56.9766 29.7845 56.9766 27C56.9766 24.2413 57.217 21.8177 57.6978 19.7293C58.1786 17.6151 58.8397 15.965 59.6811 14.779C60.5334 13.593 61.5114 13 62.615 13C63.7405 13 64.7294 13.593 65.5817 14.779C66.434 15.965 67.0951 17.6151 67.565 19.7293C68.0348 21.8177 68.2698 24.2413 68.2698 27C68.2698 29.7845 68.0348 32.2339 67.565 34.3481C67.0951 36.4365 66.434 38.0737 65.5817 39.2597C64.7294 40.4199 63.7405 41 62.615 41ZM62.6314 36.8232C63.3635 36.8232 64.0027 36.4365 64.5491 35.663C65.0954 34.8637 65.5161 33.7293 65.8112 32.2597C66.1062 30.7901 66.2537 29.0368 66.2537 27C66.2537 24.9632 66.1062 23.2099 65.8112 21.7403C65.5161 20.2707 65.0954 19.1492 64.5491 18.3757C64.0027 17.5764 63.3635 17.1768 62.6314 17.1768C61.8993 17.1768 61.26 17.5764 60.7137 18.3757C60.1673 19.1492 59.7412 20.2707 59.4352 21.7403C59.1402 23.2099 58.9927 24.9632 58.9927 27C58.9927 29.0368 59.1402 30.7901 59.4352 32.2597C59.7412 33.7293 60.1673 34.8637 60.7137 35.663C61.26 36.4365 61.8993 36.8232 62.6314 36.8232Z" fill="black"/>
<path d="M75.7808 41C74.6444 41 73.6609 40.4199 72.8305 39.2597C72.0109 38.0737 71.3772 36.4365 70.9292 34.3481C70.4921 32.2339 70.2735 29.7974 70.2735 27.0387C70.2735 24.2541 70.4921 21.8177 70.9292 19.7293C71.3772 17.6151 72.0109 15.965 72.8305 14.779C73.6609 13.593 74.6444 13 75.7808 13C77.1467 13 78.2612 13.7993 79.1245 15.3978C79.9877 16.9705 80.5341 19.2007 80.7635 22.0884H78.6C78.447 20.5672 78.1356 19.3683 77.6657 18.4917C77.1958 17.6151 76.5621 17.1768 75.7644 17.1768C75.0432 17.1768 74.4204 17.5764 73.8959 18.3757C73.3823 19.1492 72.9834 20.2836 72.6993 21.779C72.4262 23.2486 72.2896 25.0018 72.2896 27.0387C72.2896 29.0755 72.4262 30.8287 72.6993 32.2983C72.9834 33.7422 73.3823 34.8637 73.8959 35.663C74.4204 36.4365 75.0432 36.8232 75.7644 36.8232C76.5621 36.8232 77.1958 36.4236 77.6657 35.6243C78.1356 34.7993 78.447 33.6648 78.6 32.221H80.7635C80.545 34.954 79.9986 37.1068 79.1245 38.6796C78.2612 40.2265 77.1467 41 75.7808 41Z" fill="black"/>
<path d="M83.1799 40.5359V13.4641H85.1468V24.6409L89.4739 13.4641H91.9161L87.6709 24.2155L92.0144 40.5359H89.6214L86.2777 27.7735L85.1468 30.674V40.5359H83.1799Z" fill="black"/>
<path d="M94.0438 40.5359V13.4641L96.0107 13.4641V40.5359H94.0438Z" fill="black"/>
<path d="M98.8093 40.5359V13.4641H100.776L106.3 33.0331V13.4641H108.267V40.5359H106.3L100.776 21.0055V40.5359H98.8093Z" fill="black"/>
<path d="M116.065 41C114.983 41 114.032 40.4199 113.213 39.2597C112.404 38.0994 111.776 36.488 111.328 34.4254C110.88 32.337 110.656 29.9006 110.656 27.116C110.656 24.3573 110.885 21.9208 111.344 19.8066C111.803 17.6667 112.459 16.0037 113.311 14.8177C114.175 13.6059 115.196 13 116.376 13C117.709 13 118.813 13.7606 119.687 15.2818C120.572 16.7772 121.146 18.8656 121.408 21.547H119.196C119.032 20.2063 118.709 19.1621 118.228 18.4144C117.748 17.6667 117.125 17.2928 116.36 17.2928C115.584 17.2928 114.918 17.6924 114.36 18.4917C113.814 19.2652 113.393 20.3996 113.098 21.895C112.814 23.3646 112.672 25.1179 112.672 27.1547C112.672 29.1915 112.814 30.9448 113.098 32.4144C113.393 33.884 113.808 35.0055 114.344 35.779C114.879 36.5267 115.508 36.9006 116.229 36.9006C117.3 36.9006 118.108 36.1915 118.655 34.7735C119.201 33.3554 119.523 31.512 119.622 29.2431H116.655V25.7238L121.605 25.7238V40.5359H119.802L119.638 36.8232C119.387 37.6998 119.097 38.4604 118.769 39.105C118.442 39.7238 118.054 40.2007 117.606 40.5359C117.169 40.8453 116.655 41 116.065 41Z" fill="black"/>
<path d="M132.039 40.5359L127.827 13.4641H129.941L133.236 35.779L136.579 13.4641L138.661 13.4641L134.432 40.5359H132.039Z" fill="black"/>
<path d="M138.374 40.5359L142.57 13.4641H144.766L148.962 40.5359H146.88L143.652 18.8785L140.423 40.5359H138.374ZM140.242 34.1547L140.767 30.4807H146.422L146.946 34.1547H140.242Z" fill="black"/>
<path d="M151.032 40.5359V13.4641L152.999 13.4641V36.9006H158.113V40.5359H151.032Z" fill="black"/>
<path d="M164.367 41C163.536 41 162.782 40.6133 162.105 39.8398C161.438 39.0663 160.903 37.8803 160.499 36.2818C160.105 34.6832 159.908 32.6722 159.908 30.2486V13.4641L161.875 13.4641V30.2873C161.875 31.7569 161.979 32.9687 162.187 33.9227C162.394 34.8766 162.684 35.5985 163.055 36.0884C163.438 36.5525 163.886 36.7845 164.4 36.7845C164.924 36.7845 165.372 36.5525 165.744 36.0884C166.126 35.5985 166.416 34.8766 166.612 33.9227C166.82 32.9687 166.924 31.7569 166.924 30.2873V13.4641L168.891 13.4641V30.2486C168.891 32.6722 168.688 34.6832 168.284 36.2818C167.88 37.8803 167.333 39.0663 166.645 39.8398C165.957 40.6133 165.197 41 164.367 41Z" fill="black"/>
<path d="M171.591 40.5359V13.4641L179 13.4641V17.2155H173.558V24.989H178.508V28.663H173.558V36.7845H179V40.5359H171.591Z" fill="black"/>
<path d="M431.458 40C430.628 40 429.874 39.6133 429.196 38.8398C428.53 38.0663 427.994 36.8803 427.59 35.2818C427.197 33.6832 427 31.6722 427 29.2486L427 12.4641H428.967V29.2873C428.967 30.7569 429.071 31.9687 429.278 32.9227C429.486 33.8766 429.775 34.5985 430.147 35.0884C430.529 35.5525 430.977 35.7845 431.491 35.7845C432.016 35.7845 432.464 35.5525 432.835 35.0884C433.218 34.5985 433.507 33.8766 433.704 32.9227C433.911 31.9687 434.015 30.7569 434.015 29.2873V12.4641H435.982V29.2486C435.982 31.6722 435.78 33.6832 435.376 35.2818C434.971 36.8803 434.425 38.0663 433.737 38.8398C433.048 39.6133 432.289 40 431.458 40Z" fill="black"/>
<path d="M438.683 39.5359V12.4641L440.65 12.4641L446.173 32.0331V12.4641L448.14 12.4641V39.5359H446.173L440.65 20.0055V39.5359H438.683Z" fill="black"/>
<path d="M450.939 39.5359V12.4641H452.906V35.9006H458.02V39.5359H450.939Z" fill="black"/>
<path d="M464.615 40C463.511 40 462.533 39.4199 461.681 38.2597C460.84 37.0737 460.179 35.4365 459.698 33.3481C459.217 31.2339 458.977 28.7845 458.977 26C458.977 23.2413 459.217 20.8177 459.698 18.7293C460.179 16.6151 460.84 14.965 461.681 13.779C462.533 12.593 463.511 12 464.615 12C465.74 12 466.729 12.593 467.582 13.779C468.434 14.965 469.095 16.6151 469.565 18.7293C470.035 20.8177 470.27 23.2413 470.27 26C470.27 28.7845 470.035 31.2339 469.565 33.3481C469.095 35.4365 468.434 37.0737 467.582 38.2597C466.729 39.4199 465.74 40 464.615 40ZM464.631 35.8232C465.364 35.8232 466.003 35.4365 466.549 34.663C467.095 33.8637 467.516 32.7293 467.811 31.2597C468.106 29.7901 468.254 28.0368 468.254 26C468.254 23.9632 468.106 22.2099 467.811 20.7403C467.516 19.2707 467.095 18.1492 466.549 17.3757C466.003 16.5764 465.364 16.1768 464.631 16.1768C463.899 16.1768 463.26 16.5764 462.714 17.3757C462.167 18.1492 461.741 19.2707 461.435 20.7403C461.14 22.2099 460.993 23.9632 460.993 26C460.993 28.0368 461.14 29.7901 461.435 31.2597C461.741 32.7293 462.167 33.8637 462.714 34.663C463.26 35.4365 463.899 35.8232 464.631 35.8232Z" fill="black"/>
<path d="M477.781 40C476.644 40 475.661 39.4199 474.83 38.2597C474.011 37.0737 473.377 35.4365 472.929 33.3481C472.492 31.2339 472.274 28.7974 472.274 26.0387C472.274 23.2541 472.492 20.8177 472.929 18.7293C473.377 16.6151 474.011 14.965 474.83 13.779C475.661 12.593 476.644 12 477.781 12C479.147 12 480.261 12.7993 481.124 14.3978C481.988 15.9705 482.534 18.2007 482.764 21.0884H480.6C480.447 19.5672 480.136 18.3683 479.666 17.4917C479.196 16.6151 478.562 16.1768 477.764 16.1768C477.043 16.1768 476.42 16.5764 475.896 17.3757C475.382 18.1492 474.983 19.2836 474.699 20.779C474.426 22.2486 474.29 24.0018 474.29 26.0387C474.29 28.0755 474.426 29.8287 474.699 31.2983C474.983 32.7422 475.382 33.8637 475.896 34.663C476.42 35.4365 477.043 35.8232 477.764 35.8232C478.562 35.8232 479.196 35.4236 479.666 34.6243C480.136 33.7993 480.447 32.6648 480.6 31.221H482.764C482.545 33.954 481.999 36.1068 481.124 37.6796C480.261 39.2265 479.147 40 477.781 40Z" fill="black"/>
<path d="M485.18 39.5359V12.4641H487.147V23.6409L491.474 12.4641H493.916L489.671 23.2155L494.014 39.5359H491.621L488.278 26.7735L487.147 29.674V39.5359H485.18Z" fill="black"/>
<path d="M496.044 39.5359V12.4641L498.011 12.4641V39.5359H496.044Z" fill="black"/>
<path d="M500.809 39.5359V12.4641H502.776L508.3 32.0331V12.4641L510.267 12.4641V39.5359H508.3L502.776 20.0055V39.5359H500.809Z" fill="black"/>
<path d="M518.065 40C516.983 40 516.032 39.4199 515.213 38.2597C514.404 37.0994 513.776 35.488 513.328 33.4254C512.88 31.337 512.656 28.9006 512.656 26.116C512.656 23.3573 512.885 20.9208 513.344 18.8066C513.803 16.6667 514.459 15.0037 515.311 13.8177C516.175 12.6059 517.196 12 518.376 12C519.709 12 520.813 12.7606 521.687 14.2818C522.572 15.7772 523.146 17.8656 523.408 20.547H521.196C521.032 19.2063 520.709 18.1621 520.228 17.4144C519.748 16.6667 519.125 16.2928 518.36 16.2928C517.584 16.2928 516.918 16.6924 516.36 17.4917C515.814 18.2652 515.393 19.3996 515.098 20.895C514.814 22.3646 514.672 24.1179 514.672 26.1547C514.672 28.1915 514.814 29.9448 515.098 31.4144C515.393 32.884 515.808 34.0055 516.344 34.779C516.879 35.5267 517.508 35.9006 518.229 35.9006C519.3 35.9006 520.108 35.1915 520.655 33.7735C521.201 32.3554 521.523 30.512 521.622 28.2431H518.655V24.7238L523.605 24.7238V39.5359H521.802L521.638 35.8232C521.387 36.6998 521.097 37.4604 520.769 38.105C520.442 38.7238 520.054 39.2007 519.606 39.5359C519.169 39.8453 518.655 40 518.065 40Z" fill="black"/>
<path d="M534.039 39.5359L529.827 12.4641H531.941L535.236 34.779L538.579 12.4641L540.661 12.4641L536.432 39.5359H534.039Z" fill="black"/>
<path d="M540.374 39.5359L544.57 12.4641H546.766L550.962 39.5359H548.88L545.652 17.8785L542.423 39.5359H540.374ZM542.242 33.1547L542.767 29.4807H548.422L548.946 33.1547H542.242Z" fill="black"/>
<path d="M553.032 39.5359V12.4641L554.999 12.4641V35.9006H560.113V39.5359H553.032Z" fill="black"/>
<path d="M566.367 40C565.536 40 564.782 39.6133 564.105 38.8398C563.438 38.0663 562.903 36.8803 562.499 35.2818C562.105 33.6832 561.908 31.6722 561.908 29.2486V12.4641L563.875 12.4641V29.2873C563.875 30.7569 563.979 31.9687 564.187 32.9227C564.394 33.8766 564.684 34.5985 565.055 35.0884C565.438 35.5525 565.886 35.7845 566.4 35.7845C566.924 35.7845 567.372 35.5525 567.744 35.0884C568.126 34.5985 568.416 33.8766 568.612 32.9227C568.82 31.9687 568.924 30.7569 568.924 29.2873V12.4641L570.891 12.4641V29.2486C570.891 31.6722 570.688 33.6832 570.284 35.2818C569.88 36.8803 569.333 38.0663 568.645 38.8398C567.957 39.6133 567.197 40 566.367 40Z" fill="black"/>
<path d="M573.591 39.5359V12.4641L581 12.4641V16.2155H575.558V23.989H580.508V27.663H575.558V35.7845H581V39.5359H573.591Z" fill="black"/>
<path d="M629.487 40C628.651 40 627.892 39.6133 627.211 38.8398C626.54 38.0663 626.001 36.8803 625.594 35.2818C625.198 33.6832 625 31.6722 625 29.2486L625 12.4641H626.98V29.2873C626.98 30.7569 627.084 31.9687 627.293 32.9227C627.502 33.8766 627.794 34.5985 628.167 35.0884C628.552 35.5525 629.003 35.7845 629.52 35.7845C630.048 35.7845 630.499 35.5525 630.873 35.0884C631.258 34.5985 631.549 33.8766 631.747 32.9227C631.956 31.9687 632.061 30.7569 632.061 29.2873V12.4641H634.04V29.2486C634.04 31.6722 633.837 33.6832 633.43 35.2818C633.023 36.8803 632.473 38.0663 631.78 38.8398C631.087 39.6133 630.323 40 629.487 40Z" fill="black"/>
<path d="M636.759 39.5359V12.4641L638.738 12.4641L644.298 32.0331V12.4641L646.278 12.4641V39.5359H644.298L638.738 20.0055V39.5359H636.759Z" fill="black"/>
<path d="M649.095 39.5359V12.4641H651.075V35.9006H656.222V39.5359H649.095Z" fill="black"/>
<path d="M662.859 40C661.748 40 660.764 39.4199 659.906 38.2597C659.059 37.0737 658.394 35.4365 657.91 33.3481C657.426 31.2339 657.184 28.7845 657.184 26C657.184 23.2413 657.426 20.8177 657.91 18.7293C658.394 16.6151 659.059 14.965 659.906 13.779C660.764 12.593 661.748 12 662.859 12C663.992 12 664.987 12.593 665.845 13.779C666.703 14.965 667.368 16.6151 667.841 18.7293C668.314 20.8177 668.551 23.2413 668.551 26C668.551 28.7845 668.314 31.2339 667.841 33.3481C667.368 35.4365 666.703 37.0737 665.845 38.2597C664.987 39.4199 663.992 40 662.859 40ZM662.876 35.8232C663.613 35.8232 664.256 35.4365 664.806 34.663C665.356 33.8637 665.779 32.7293 666.076 31.2597C666.373 29.7901 666.522 28.0368 666.522 26C666.522 23.9632 666.373 22.2099 666.076 20.7403C665.779 19.2707 665.356 18.1492 664.806 17.3757C664.256 16.5764 663.613 16.1768 662.876 16.1768C662.139 16.1768 661.495 16.5764 660.946 17.3757C660.396 18.1492 659.967 19.2707 659.659 20.7403C659.362 22.2099 659.213 23.9632 659.213 26C659.213 28.0368 659.362 29.7901 659.659 31.2597C659.967 32.7293 660.396 33.8637 660.946 34.663C661.495 35.4365 662.139 35.8232 662.876 35.8232Z" fill="black"/>
<path d="M676.111 40C674.967 40 673.977 39.4199 673.141 38.2597C672.316 37.0737 671.678 35.4365 671.227 33.3481C670.787 31.2339 670.568 28.7974 670.568 26.0387C670.568 23.2541 670.787 20.8177 671.227 18.7293C671.678 16.6151 672.316 14.965 673.141 13.779C673.977 12.593 674.967 12 676.111 12C677.485 12 678.607 12.7993 679.476 14.3978C680.345 15.9705 680.895 18.2007 681.126 21.0884H678.948C678.794 19.5672 678.481 18.3683 678.008 17.4917C677.535 16.6151 676.897 16.1768 676.094 16.1768C675.368 16.1768 674.741 16.5764 674.213 17.3757C673.696 18.1492 673.295 19.2836 673.009 20.779C672.734 22.2486 672.597 24.0018 672.597 26.0387C672.597 28.0755 672.734 29.8287 673.009 31.2983C673.295 32.7422 673.696 33.8637 674.213 34.663C674.741 35.4365 675.368 35.8232 676.094 35.8232C676.897 35.8232 677.535 35.4236 678.008 34.6243C678.481 33.7993 678.794 32.6648 678.948 31.221H681.126C680.906 33.954 680.356 36.1068 679.476 37.6796C678.607 39.2265 677.485 40 676.111 40Z" fill="black"/>
<path d="M683.558 39.5359V12.4641H685.537V23.6409L689.893 12.4641H692.351L688.078 23.2155L692.45 39.5359H690.041L686.676 26.7735L685.537 29.674V39.5359H683.558Z" fill="black"/>
<path d="M694.492 39.5359V12.4641L696.472 12.4641V39.5359H694.492Z" fill="black"/>
<path d="M699.289 39.5359V12.4641H701.268L706.828 32.0331V12.4641H708.807V39.5359H706.828L701.268 20.0055V39.5359H699.289Z" fill="black"/>
<path d="M716.656 40C715.567 40 714.611 39.4199 713.786 38.2597C712.972 37.0994 712.339 35.488 711.889 33.4254C711.438 31.337 711.212 28.9006 711.212 26.116C711.212 23.3573 711.443 20.9208 711.905 18.8066C712.367 16.6667 713.027 15.0037 713.885 13.8177C714.754 12.6059 715.782 12 716.97 12C718.311 12 719.422 12.7606 720.302 14.2818C721.193 15.7772 721.77 17.8656 722.034 20.547H719.807C719.642 19.2063 719.318 18.1621 718.834 17.4144C718.35 16.6667 717.723 16.2928 716.953 16.2928C716.172 16.2928 715.501 16.6924 714.941 17.4917C714.391 18.2652 713.967 19.3996 713.67 20.895C713.384 22.3646 713.241 24.1179 713.241 26.1547C713.241 28.1915 713.384 29.9448 713.67 31.4144C713.967 32.884 714.385 34.0055 714.924 34.779C715.463 35.5267 716.095 35.9006 716.821 35.9006C717.899 35.9006 718.713 35.1915 719.263 33.7735C719.813 32.3554 720.137 30.512 720.236 28.2431H717.25V24.7238L722.232 24.7238V39.5359H720.418L720.253 35.8232C720 36.6998 719.708 37.4604 719.378 38.105C719.048 38.7238 718.658 39.2007 718.207 39.5359C717.767 39.8453 717.25 40 716.656 40Z" fill="black"/>
<path d="M732.734 39.5359L728.495 12.4641H730.623L733.939 34.779L737.304 12.4641L739.399 12.4641L735.143 39.5359H732.734Z" fill="black"/>
<path d="M739.11 39.5359L743.333 12.4641H745.544L749.767 39.5359H747.672L744.422 17.8785L741.172 39.5359H739.11ZM740.991 33.1547L741.518 29.4807H747.21L747.738 33.1547H740.991Z" fill="black"/>
<path d="M751.85 39.5359V12.4641L753.83 12.4641V35.9006H758.977V39.5359H751.85Z" fill="black"/>
<path d="M765.272 40C764.436 40 763.677 39.6133 762.995 38.8398C762.324 38.0663 761.785 36.8803 761.378 35.2818C760.982 33.6832 760.785 31.6722 760.785 29.2486V12.4641L762.764 12.4641V29.2873C762.764 30.7569 762.869 31.9687 763.078 32.9227C763.287 33.8766 763.578 34.5985 763.952 35.0884C764.337 35.5525 764.788 35.7845 765.305 35.7845C765.833 35.7845 766.284 35.5525 766.657 35.0884C767.042 34.5985 767.334 33.8766 767.532 32.9227C767.741 31.9687 767.845 30.7569 767.845 29.2873V12.4641L769.825 12.4641V29.2486C769.825 31.6722 769.621 33.6832 769.215 35.2818C768.808 36.8803 768.258 38.0663 767.565 38.8398C766.872 39.6133 766.108 40 765.272 40Z" fill="black"/>
<path d="M772.543 39.5359V12.4641L780 12.4641V16.2155H774.523V23.989H779.505V27.663H774.523V35.7845H780V39.5359H772.543Z" fill="black"/>
<path d="M828.458 40C827.628 40 826.874 39.6133 826.196 38.8398C825.53 38.0663 824.994 36.8803 824.59 35.2818C824.197 33.6832 824 31.6722 824 29.2486L824 12.4641H825.967V29.2873C825.967 30.7569 826.071 31.9687 826.278 32.9227C826.486 33.8766 826.775 34.5985 827.147 35.0884C827.529 35.5525 827.977 35.7845 828.491 35.7845C829.016 35.7845 829.464 35.5525 829.835 35.0884C830.218 34.5985 830.507 33.8766 830.704 32.9227C830.911 31.9687 831.015 30.7569 831.015 29.2873V12.4641H832.982V29.2486C832.982 31.6722 832.78 33.6832 832.376 35.2818C831.971 36.8803 831.425 38.0663 830.737 38.8398C830.048 39.6133 829.289 40 828.458 40Z" fill="black"/>
<path d="M835.683 39.5359V12.4641L837.65 12.4641L843.173 32.0331V12.4641L845.14 12.4641V39.5359H843.173L837.65 20.0055V39.5359H835.683Z" fill="black"/>
<path d="M847.939 39.5359V12.4641H849.906V35.9006H855.02V39.5359H847.939Z" fill="black"/>
<path d="M861.615 40C860.511 40 859.533 39.4199 858.681 38.2597C857.84 37.0737 857.179 35.4365 856.698 33.3481C856.217 31.2339 855.977 28.7845 855.977 26C855.977 23.2413 856.217 20.8177 856.698 18.7293C857.179 16.6151 857.84 14.965 858.681 13.779C859.533 12.593 860.511 12 861.615 12C862.74 12 863.729 12.593 864.582 13.779C865.434 14.965 866.095 16.6151 866.565 18.7293C867.035 20.8177 867.27 23.2413 867.27 26C867.27 28.7845 867.035 31.2339 866.565 33.3481C866.095 35.4365 865.434 37.0737 864.582 38.2597C863.729 39.4199 862.74 40 861.615 40ZM861.631 35.8232C862.364 35.8232 863.003 35.4365 863.549 34.663C864.095 33.8637 864.516 32.7293 864.811 31.2597C865.106 29.7901 865.254 28.0368 865.254 26C865.254 23.9632 865.106 22.2099 864.811 20.7403C864.516 19.2707 864.095 18.1492 863.549 17.3757C863.003 16.5764 862.364 16.1768 861.631 16.1768C860.899 16.1768 860.26 16.5764 859.714 17.3757C859.167 18.1492 858.741 19.2707 858.435 20.7403C858.14 22.2099 857.993 23.9632 857.993 26C857.993 28.0368 858.14 29.7901 858.435 31.2597C858.741 32.7293 859.167 33.8637 859.714 34.663C860.26 35.4365 860.899 35.8232 861.631 35.8232Z" fill="black"/>
<path d="M874.781 40C873.644 40 872.661 39.4199 871.83 38.2597C871.011 37.0737 870.377 35.4365 869.929 33.3481C869.492 31.2339 869.274 28.7974 869.274 26.0387C869.274 23.2541 869.492 20.8177 869.929 18.7293C870.377 16.6151 871.011 14.965 871.83 13.779C872.661 12.593 873.644 12 874.781 12C876.147 12 877.261 12.7993 878.124 14.3978C878.988 15.9705 879.534 18.2007 879.764 21.0884H877.6C877.447 19.5672 877.136 18.3683 876.666 17.4917C876.196 16.6151 875.562 16.1768 874.764 16.1768C874.043 16.1768 873.42 16.5764 872.896 17.3757C872.382 18.1492 871.983 19.2836 871.699 20.779C871.426 22.2486 871.29 24.0018 871.29 26.0387C871.29 28.0755 871.426 29.8287 871.699 31.2983C871.983 32.7422 872.382 33.8637 872.896 34.663C873.42 35.4365 874.043 35.8232 874.764 35.8232C875.562 35.8232 876.196 35.4236 876.666 34.6243C877.136 33.7993 877.447 32.6648 877.6 31.221H879.764C879.545 33.954 878.999 36.1068 878.124 37.6796C877.261 39.2265 876.147 40 874.781 40Z" fill="black"/>
<path d="M882.18 39.5359V12.4641H884.147V23.6409L888.474 12.4641H890.916L886.671 23.2155L891.014 39.5359H888.621L885.278 26.7735L884.147 29.674V39.5359H882.18Z" fill="black"/>
<path d="M893.044 39.5359V12.4641L895.011 12.4641V39.5359H893.044Z" fill="black"/>
<path d="M897.809 39.5359V12.4641H899.776L905.3 32.0331V12.4641H907.267V39.5359H905.3L899.776 20.0055V39.5359H897.809Z" fill="black"/>
<path d="M915.065 40C913.983 40 913.032 39.4199 912.213 38.2597C911.404 37.0994 910.776 35.488 910.328 33.4254C909.88 31.337 909.656 28.9006 909.656 26.116C909.656 23.3573 909.885 20.9208 910.344 18.8066C910.803 16.6667 911.459 15.0037 912.311 13.8177C913.175 12.6059 914.196 12 915.376 12C916.709 12 917.813 12.7606 918.687 14.2818C919.572 15.7772 920.146 17.8656 920.408 20.547H918.196C918.032 19.2063 917.709 18.1621 917.228 17.4144C916.748 16.6667 916.125 16.2928 915.36 16.2928C914.584 16.2928 913.918 16.6924 913.36 17.4917C912.814 18.2652 912.393 19.3996 912.098 20.895C911.814 22.3646 911.672 24.1179 911.672 26.1547C911.672 28.1915 911.814 29.9448 912.098 31.4144C912.393 32.884 912.808 34.0055 913.344 34.779C913.879 35.5267 914.508 35.9006 915.229 35.9006C916.3 35.9006 917.108 35.1915 917.655 33.7735C918.201 32.3554 918.523 30.512 918.622 28.2431H915.655V24.7238L920.605 24.7238V39.5359H918.802L918.638 35.8232C918.387 36.6998 918.097 37.4604 917.769 38.105C917.442 38.7238 917.054 39.2007 916.606 39.5359C916.169 39.8453 915.655 40 915.065 40Z" fill="black"/>
<path d="M931.039 39.5359L926.827 12.4641H928.941L932.236 34.779L935.579 12.4641L937.661 12.4641L933.432 39.5359H931.039Z" fill="black"/>
<path d="M937.374 39.5359L941.57 12.4641H943.766L947.962 39.5359H945.88L942.652 17.8785L939.423 39.5359H937.374ZM939.242 33.1547L939.767 29.4807H945.422L945.946 33.1547H939.242Z" fill="black"/>
<path d="M950.032 39.5359V12.4641L951.999 12.4641V35.9006H957.113V39.5359H950.032Z" fill="black"/>
<path d="M963.367 40C962.536 40 961.782 39.6133 961.105 38.8398C960.438 38.0663 959.903 36.8803 959.499 35.2818C959.105 33.6832 958.908 31.6722 958.908 29.2486V12.4641L960.875 12.4641V29.2873C960.875 30.7569 960.979 31.9687 961.187 32.9227C961.394 33.8766 961.684 34.5985 962.055 35.0884C962.438 35.5525 962.886 35.7845 963.4 35.7845C963.924 35.7845 964.372 35.5525 964.744 35.0884C965.126 34.5985 965.416 33.8766 965.612 32.9227C965.82 31.9687 965.924 30.7569 965.924 29.2873V12.4641L967.891 12.4641V29.2486C967.891 31.6722 967.688 33.6832 967.284 35.2818C966.88 36.8803 966.333 38.0663 965.645 38.8398C964.957 39.6133 964.197 40 963.367 40Z" fill="black"/>
<path d="M970.591 39.5359V12.4641L978 12.4641V16.2155H972.558V23.989H977.508V27.663H972.558V35.7845H978V39.5359H970.591Z" fill="black"/>
<path d="M1026.49 40C1025.65 40 1024.89 39.6133 1024.21 38.8398C1023.54 38.0663 1023 36.8803 1022.59 35.2818C1022.2 33.6832 1022 31.6722 1022 29.2486L1022 12.4641H1023.98V29.2873C1023.98 30.7569 1024.08 31.9687 1024.29 32.9227C1024.5 33.8766 1024.79 34.5985 1025.17 35.0884C1025.55 35.5525 1026 35.7845 1026.52 35.7845C1027.05 35.7845 1027.5 35.5525 1027.87 35.0884C1028.26 34.5985 1028.55 33.8766 1028.75 32.9227C1028.96 31.9687 1029.06 30.7569 1029.06 29.2873V12.4641H1031.04V29.2486C1031.04 31.6722 1030.84 33.6832 1030.43 35.2818C1030.02 36.8803 1029.47 38.0663 1028.78 38.8398C1028.09 39.6133 1027.32 40 1026.49 40Z" fill="black"/>
<path d="M1033.76 39.5359V12.4641L1035.74 12.4641L1041.3 32.0331V12.4641L1043.28 12.4641V39.5359H1041.3L1035.74 20.0055V39.5359H1033.76Z" fill="black"/>
<path d="M1046.09 39.5359V12.4641H1048.07V35.9006H1053.22V39.5359H1046.09Z" fill="black"/>
<path d="M1059.86 40C1058.75 40 1057.76 39.4199 1056.91 38.2597C1056.06 37.0737 1055.39 35.4365 1054.91 33.3481C1054.43 31.2339 1054.18 28.7845 1054.18 26C1054.18 23.2413 1054.43 20.8177 1054.91 18.7293C1055.39 16.6151 1056.06 14.965 1056.91 13.779C1057.76 12.593 1058.75 12 1059.86 12C1060.99 12 1061.99 12.593 1062.85 13.779C1063.7 14.965 1064.37 16.6151 1064.84 18.7293C1065.31 20.8177 1065.55 23.2413 1065.55 26C1065.55 28.7845 1065.31 31.2339 1064.84 33.3481C1064.37 35.4365 1063.7 37.0737 1062.85 38.2597C1061.99 39.4199 1060.99 40 1059.86 40ZM1059.88 35.8232C1060.61 35.8232 1061.26 35.4365 1061.81 34.663C1062.36 33.8637 1062.78 32.7293 1063.08 31.2597C1063.37 29.7901 1063.52 28.0368 1063.52 26C1063.52 23.9632 1063.37 22.2099 1063.08 20.7403C1062.78 19.2707 1062.36 18.1492 1061.81 17.3757C1061.26 16.5764 1060.61 16.1768 1059.88 16.1768C1059.14 16.1768 1058.5 16.5764 1057.95 17.3757C1057.4 18.1492 1056.97 19.2707 1056.66 20.7403C1056.36 22.2099 1056.21 23.9632 1056.21 26C1056.21 28.0368 1056.36 29.7901 1056.66 31.2597C1056.97 32.7293 1057.4 33.8637 1057.95 34.663C1058.5 35.4365 1059.14 35.8232 1059.88 35.8232Z" fill="black"/>
<path d="M1073.11 40C1071.97 40 1070.98 39.4199 1070.14 38.2597C1069.32 37.0737 1068.68 35.4365 1068.23 33.3481C1067.79 31.2339 1067.57 28.7974 1067.57 26.0387C1067.57 23.2541 1067.79 20.8177 1068.23 18.7293C1068.68 16.6151 1069.32 14.965 1070.14 13.779C1070.98 12.593 1071.97 12 1073.11 12C1074.49 12 1075.61 12.7993 1076.48 14.3978C1077.34 15.9705 1077.89 18.2007 1078.13 21.0884H1075.95C1075.79 19.5672 1075.48 18.3683 1075.01 17.4917C1074.53 16.6151 1073.9 16.1768 1073.09 16.1768C1072.37 16.1768 1071.74 16.5764 1071.21 17.3757C1070.7 18.1492 1070.3 19.2836 1070.01 20.779C1069.73 22.2486 1069.6 24.0018 1069.6 26.0387C1069.6 28.0755 1069.73 29.8287 1070.01 31.2983C1070.3 32.7422 1070.7 33.8637 1071.21 34.663C1071.74 35.4365 1072.37 35.8232 1073.09 35.8232C1073.9 35.8232 1074.53 35.4236 1075.01 34.6243C1075.48 33.7993 1075.79 32.6648 1075.95 31.221H1078.13C1077.91 33.954 1077.36 36.1068 1076.48 37.6796C1075.61 39.2265 1074.49 40 1073.11 40Z" fill="black"/>
<path d="M1080.56 39.5359V12.4641H1082.54V23.6409L1086.89 12.4641H1089.35L1085.08 23.2155L1089.45 39.5359H1087.04L1083.68 26.7735L1082.54 29.674V39.5359H1080.56Z" fill="black"/>
<path d="M1091.49 39.5359V12.4641L1093.47 12.4641V39.5359H1091.49Z" fill="black"/>
<path d="M1096.29 39.5359V12.4641H1098.27L1103.83 32.0331V12.4641H1105.81V39.5359H1103.83L1098.27 20.0055V39.5359H1096.29Z" fill="black"/>
<path d="M1113.66 40C1112.57 40 1111.61 39.4199 1110.79 38.2597C1109.97 37.0994 1109.34 35.488 1108.89 33.4254C1108.44 31.337 1108.21 28.9006 1108.21 26.116C1108.21 23.3573 1108.44 20.9208 1108.91 18.8066C1109.37 16.6667 1110.03 15.0037 1110.88 13.8177C1111.75 12.6059 1112.78 12 1113.97 12C1115.31 12 1116.42 12.7606 1117.3 14.2818C1118.19 15.7772 1118.77 17.8656 1119.03 20.547H1116.81C1116.64 19.2063 1116.32 18.1621 1115.83 17.4144C1115.35 16.6667 1114.72 16.2928 1113.95 16.2928C1113.17 16.2928 1112.5 16.6924 1111.94 17.4917C1111.39 18.2652 1110.97 19.3996 1110.67 20.895C1110.38 22.3646 1110.24 24.1179 1110.24 26.1547C1110.24 28.1915 1110.38 29.9448 1110.67 31.4144C1110.97 32.884 1111.39 34.0055 1111.92 34.779C1112.46 35.5267 1113.1 35.9006 1113.82 35.9006C1114.9 35.9006 1115.71 35.1915 1116.26 33.7735C1116.81 32.3554 1117.14 30.512 1117.24 28.2431H1114.25V24.7238L1119.23 24.7238V39.5359H1117.42L1117.25 35.8232C1117 36.6998 1116.71 37.4604 1116.38 38.105C1116.05 38.7238 1115.66 39.2007 1115.21 39.5359C1114.77 39.8453 1114.25 40 1113.66 40Z" fill="black"/>
<path d="M1129.73 39.5359L1125.49 12.4641H1127.62L1130.94 34.779L1134.3 12.4641L1136.4 12.4641L1132.14 39.5359H1129.73Z" fill="black"/>
<path d="M1136.11 39.5359L1140.33 12.4641H1142.54L1146.77 39.5359H1144.67L1141.42 17.8785L1138.17 39.5359H1136.11ZM1137.99 33.1547L1138.52 29.4807H1144.21L1144.74 33.1547H1137.99Z" fill="black"/>
<path d="M1148.85 39.5359V12.4641L1150.83 12.4641V35.9006H1155.98V39.5359H1148.85Z" fill="black"/>
<path d="M1162.27 40C1161.44 40 1160.68 39.6133 1160 38.8398C1159.32 38.0663 1158.79 36.8803 1158.38 35.2818C1157.98 33.6832 1157.78 31.6722 1157.78 29.2486V12.4641L1159.76 12.4641V29.2873C1159.76 30.7569 1159.87 31.9687 1160.08 32.9227C1160.29 33.8766 1160.58 34.5985 1160.95 35.0884C1161.34 35.5525 1161.79 35.7845 1162.3 35.7845C1162.83 35.7845 1163.28 35.5525 1163.66 35.0884C1164.04 34.5985 1164.33 33.8766 1164.53 32.9227C1164.74 31.9687 1164.85 30.7569 1164.85 29.2873V12.4641L1166.82 12.4641V29.2486C1166.82 31.6722 1166.62 33.6832 1166.21 35.2818C1165.81 36.8803 1165.26 38.0663 1164.56 38.8398C1163.87 39.6133 1163.11 40 1162.27 40Z" fill="black"/>
<path d="M1169.54 39.5359V12.4641L1177 12.4641V16.2155H1171.52V23.989H1176.51V27.663H1171.52V35.7845H1177V39.5359H1169.54Z" fill="black"/>
<path d="M1225.43 40C1224.6 40 1223.86 39.6133 1223.18 38.8398C1222.52 38.0663 1221.99 36.8803 1221.59 35.2818C1221.2 33.6832 1221 31.6722 1221 29.2486L1221 12.4641H1222.95V29.2873C1222.95 30.7569 1223.06 31.9687 1223.26 32.9227C1223.47 33.8766 1223.76 34.5985 1224.13 35.0884C1224.51 35.5525 1224.95 35.7845 1225.46 35.7845C1225.98 35.7845 1226.43 35.5525 1226.8 35.0884C1227.18 34.5985 1227.46 33.8766 1227.66 32.9227C1227.87 31.9687 1227.97 30.7569 1227.97 29.2873V12.4641H1229.92V29.2486C1229.92 31.6722 1229.72 33.6832 1229.32 35.2818C1228.92 36.8803 1228.38 38.0663 1227.69 38.8398C1227.01 39.6133 1226.25 40 1225.43 40Z" fill="black"/>
<path d="M1232.61 39.5359V12.4641L1234.56 12.4641L1240.05 32.0331V12.4641L1242 12.4641V39.5359H1240.05L1234.56 20.0055V39.5359H1232.61Z" fill="black"/>
<path d="M1244.78 39.5359V12.4641H1246.74V35.9006H1251.82V39.5359H1244.78Z" fill="black"/>
<path d="M1258.37 40C1257.27 40 1256.3 39.4199 1255.46 38.2597C1254.62 37.0737 1253.96 35.4365 1253.49 33.3481C1253.01 31.2339 1252.77 28.7845 1252.77 26C1252.77 23.2413 1253.01 20.8177 1253.49 18.7293C1253.96 16.6151 1254.62 14.965 1255.46 13.779C1256.3 12.593 1257.27 12 1258.37 12C1259.49 12 1260.47 12.593 1261.32 13.779C1262.16 14.965 1262.82 16.6151 1263.29 18.7293C1263.76 20.8177 1263.99 23.2413 1263.99 26C1263.99 28.7845 1263.76 31.2339 1263.29 33.3481C1262.82 35.4365 1262.16 37.0737 1261.32 38.2597C1260.47 39.4199 1259.49 40 1258.37 40ZM1258.39 35.8232C1259.11 35.8232 1259.75 35.4365 1260.29 34.663C1260.84 33.8637 1261.25 32.7293 1261.55 31.2597C1261.84 29.7901 1261.99 28.0368 1261.99 26C1261.99 23.9632 1261.84 22.2099 1261.55 20.7403C1261.25 19.2707 1260.84 18.1492 1260.29 17.3757C1259.75 16.5764 1259.11 16.1768 1258.39 16.1768C1257.66 16.1768 1257.02 16.5764 1256.48 17.3757C1255.94 18.1492 1255.52 19.2707 1255.21 20.7403C1254.92 22.2099 1254.77 23.9632 1254.77 26C1254.77 28.0368 1254.92 29.7901 1255.21 31.2597C1255.52 32.7293 1255.94 33.8637 1256.48 34.663C1257.02 35.4365 1257.66 35.8232 1258.39 35.8232Z" fill="black"/>
<path d="M1271.45 40C1270.32 40 1269.34 39.4199 1268.52 38.2597C1267.71 37.0737 1267.08 35.4365 1266.63 33.3481C1266.2 31.2339 1265.98 28.7974 1265.98 26.0387C1265.98 23.2541 1266.2 20.8177 1266.63 18.7293C1267.08 16.6151 1267.71 14.965 1268.52 13.779C1269.34 12.593 1270.32 12 1271.45 12C1272.81 12 1273.92 12.7993 1274.77 14.3978C1275.63 15.9705 1276.17 18.2007 1276.4 21.0884H1274.25C1274.1 19.5672 1273.79 18.3683 1273.32 17.4917C1272.86 16.6151 1272.23 16.1768 1271.43 16.1768C1270.72 16.1768 1270.1 16.5764 1269.58 17.3757C1269.07 18.1492 1268.67 19.2836 1268.39 20.779C1268.12 22.2486 1267.98 24.0018 1267.98 26.0387C1267.98 28.0755 1268.12 29.8287 1268.39 31.2983C1268.67 32.7422 1269.07 33.8637 1269.58 34.663C1270.1 35.4365 1270.72 35.8232 1271.43 35.8232C1272.23 35.8232 1272.86 35.4236 1273.32 34.6243C1273.79 33.7993 1274.1 32.6648 1274.25 31.221H1276.4C1276.18 33.954 1275.64 36.1068 1274.77 37.6796C1273.92 39.2265 1272.81 40 1271.45 40Z" fill="black"/>
<path d="M1278.8 39.5359V12.4641H1280.76V23.6409L1285.06 12.4641H1287.48L1283.26 23.2155L1287.58 39.5359H1285.2L1281.88 26.7735L1280.76 29.674V39.5359H1278.8Z" fill="black"/>
<path d="M1289.6 39.5359V12.4641L1291.55 12.4641V39.5359H1289.6Z" fill="black"/>
<path d="M1294.33 39.5359V12.4641H1296.28L1301.77 32.0331V12.4641H1303.73V39.5359H1301.77L1296.28 20.0055V39.5359H1294.33Z" fill="black"/>
<path d="M1311.47 40C1310.4 40 1309.45 39.4199 1308.64 38.2597C1307.84 37.0994 1307.21 35.488 1306.77 33.4254C1306.32 31.337 1306.1 28.9006 1306.1 26.116C1306.1 23.3573 1306.33 20.9208 1306.78 18.8066C1307.24 16.6667 1307.89 15.0037 1308.74 13.8177C1309.6 12.6059 1310.61 12 1311.78 12C1313.11 12 1314.2 12.7606 1315.07 14.2818C1315.95 15.7772 1316.52 17.8656 1316.78 20.547H1314.58C1314.42 19.2063 1314.1 18.1621 1313.62 17.4144C1313.15 16.6667 1312.53 16.2928 1311.77 16.2928C1311 16.2928 1310.33 16.6924 1309.78 17.4917C1309.24 18.2652 1308.82 19.3996 1308.53 20.895C1308.24 22.3646 1308.1 24.1179 1308.1 26.1547C1308.1 28.1915 1308.24 29.9448 1308.53 31.4144C1308.82 32.884 1309.23 34.0055 1309.76 34.779C1310.3 35.5267 1310.92 35.9006 1311.64 35.9006C1312.7 35.9006 1313.5 35.1915 1314.05 33.7735C1314.59 32.3554 1314.91 30.512 1315.01 28.2431H1312.06V24.7238L1316.98 24.7238V39.5359H1315.19L1315.02 35.8232C1314.77 36.6998 1314.49 37.4604 1314.16 38.105C1313.83 38.7238 1313.45 39.2007 1313 39.5359C1312.57 39.8453 1312.06 40 1311.47 40Z" fill="black"/>
<path d="M1327.34 39.5359L1323.16 12.4641H1325.26L1328.53 34.779L1331.85 12.4641L1333.92 12.4641L1329.72 39.5359H1327.34Z" fill="black"/>
<path d="M1333.64 39.5359L1337.81 12.4641H1339.99L1344.16 39.5359H1342.09L1338.88 17.8785L1335.67 39.5359H1333.64ZM1335.49 33.1547L1336.02 29.4807H1341.63L1342.15 33.1547H1335.49Z" fill="black"/>
<path d="M1346.21 39.5359V12.4641L1348.17 12.4641V35.9006H1353.25V39.5359H1346.21Z" fill="black"/>
<path d="M1359.46 40C1358.64 40 1357.89 39.6133 1357.21 38.8398C1356.55 38.0663 1356.02 36.8803 1355.62 35.2818C1355.23 33.6832 1355.03 31.6722 1355.03 29.2486V12.4641L1356.99 12.4641V29.2873C1356.99 30.7569 1357.09 31.9687 1357.3 32.9227C1357.5 33.8766 1357.79 34.5985 1358.16 35.0884C1358.54 35.5525 1358.98 35.7845 1359.49 35.7845C1360.02 35.7845 1360.46 35.5525 1360.83 35.0884C1361.21 34.5985 1361.5 33.8766 1361.69 32.9227C1361.9 31.9687 1362 30.7569 1362 29.2873V12.4641L1363.96 12.4641V29.2486C1363.96 31.6722 1363.76 33.6832 1363.35 35.2818C1362.95 36.8803 1362.41 38.0663 1361.73 38.8398C1361.04 39.6133 1360.29 40 1359.46 40Z" fill="black"/>
<path d="M1366.64 39.5359V12.4641L1374 12.4641V16.2155H1368.59V23.989H1373.51V27.663H1368.59V35.7845H1374V39.5359H1366.64Z" fill="black"/>
<path d="M1424.43 40C1423.6 40 1422.86 39.6133 1422.18 38.8398C1421.52 38.0663 1420.99 36.8803 1420.59 35.2818C1420.2 33.6832 1420 31.6722 1420 29.2486L1420 12.4641H1421.95V29.2873C1421.95 30.7569 1422.06 31.9687 1422.26 32.9227C1422.47 33.8766 1422.76 34.5985 1423.13 35.0884C1423.51 35.5525 1423.95 35.7845 1424.46 35.7845C1424.98 35.7845 1425.43 35.5525 1425.8 35.0884C1426.18 34.5985 1426.46 33.8766 1426.66 32.9227C1426.87 31.9687 1426.97 30.7569 1426.97 29.2873V12.4641H1428.92V29.2486C1428.92 31.6722 1428.72 33.6832 1428.32 35.2818C1427.92 36.8803 1427.38 38.0663 1426.69 38.8398C1426.01 39.6133 1425.25 40 1424.43 40Z" fill="black"/>
<path d="M1431.61 39.5359V12.4641L1433.56 12.4641L1439.05 32.0331V12.4641L1441 12.4641V39.5359H1439.05L1433.56 20.0055V39.5359H1431.61Z" fill="black"/>
<path d="M1443.78 39.5359V12.4641H1445.74V35.9006H1450.82V39.5359H1443.78Z" fill="black"/>
<path d="M1457.37 40C1456.27 40 1455.3 39.4199 1454.46 38.2597C1453.62 37.0737 1452.96 35.4365 1452.49 33.3481C1452.01 31.2339 1451.77 28.7845 1451.77 26C1451.77 23.2413 1452.01 20.8177 1452.49 18.7293C1452.96 16.6151 1453.62 14.965 1454.46 13.779C1455.3 12.593 1456.27 12 1457.37 12C1458.49 12 1459.47 12.593 1460.32 13.779C1461.16 14.965 1461.82 16.6151 1462.29 18.7293C1462.76 20.8177 1462.99 23.2413 1462.99 26C1462.99 28.7845 1462.76 31.2339 1462.29 33.3481C1461.82 35.4365 1461.16 37.0737 1460.32 38.2597C1459.47 39.4199 1458.49 40 1457.37 40ZM1457.39 35.8232C1458.11 35.8232 1458.75 35.4365 1459.29 34.663C1459.84 33.8637 1460.25 32.7293 1460.55 31.2597C1460.84 29.7901 1460.99 28.0368 1460.99 26C1460.99 23.9632 1460.84 22.2099 1460.55 20.7403C1460.25 19.2707 1459.84 18.1492 1459.29 17.3757C1458.75 16.5764 1458.11 16.1768 1457.39 16.1768C1456.66 16.1768 1456.02 16.5764 1455.48 17.3757C1454.94 18.1492 1454.52 19.2707 1454.21 20.7403C1453.92 22.2099 1453.77 23.9632 1453.77 26C1453.77 28.0368 1453.92 29.7901 1454.21 31.2597C1454.52 32.7293 1454.94 33.8637 1455.48 34.663C1456.02 35.4365 1456.66 35.8232 1457.39 35.8232Z" fill="black"/>
<path d="M1470.45 40C1469.32 40 1468.34 39.4199 1467.52 38.2597C1466.71 37.0737 1466.08 35.4365 1465.63 33.3481C1465.2 31.2339 1464.98 28.7974 1464.98 26.0387C1464.98 23.2541 1465.2 20.8177 1465.63 18.7293C1466.08 16.6151 1466.71 14.965 1467.52 13.779C1468.34 12.593 1469.32 12 1470.45 12C1471.81 12 1472.92 12.7993 1473.77 14.3978C1474.63 15.9705 1475.17 18.2007 1475.4 21.0884H1473.25C1473.1 19.5672 1472.79 18.3683 1472.32 17.4917C1471.86 16.6151 1471.23 16.1768 1470.43 16.1768C1469.72 16.1768 1469.1 16.5764 1468.58 17.3757C1468.07 18.1492 1467.67 19.2836 1467.39 20.779C1467.12 22.2486 1466.98 24.0018 1466.98 26.0387C1466.98 28.0755 1467.12 29.8287 1467.39 31.2983C1467.67 32.7422 1468.07 33.8637 1468.58 34.663C1469.1 35.4365 1469.72 35.8232 1470.43 35.8232C1471.23 35.8232 1471.86 35.4236 1472.32 34.6243C1472.79 33.7993 1473.1 32.6648 1473.25 31.221H1475.4C1475.18 33.954 1474.64 36.1068 1473.77 37.6796C1472.92 39.2265 1471.81 40 1470.45 40Z" fill="black"/>
<path d="M1477.8 39.5359V12.4641H1479.76V23.6409L1484.06 12.4641H1486.48L1482.26 23.2155L1486.58 39.5359H1484.2L1480.88 26.7735L1479.76 29.674V39.5359H1477.8Z" fill="black"/>
<path d="M1488.6 39.5359V12.4641L1490.55 12.4641V39.5359H1488.6Z" fill="black"/>
<path d="M1493.33 39.5359V12.4641H1495.28L1500.77 32.0331V12.4641H1502.73V39.5359H1500.77L1495.28 20.0055V39.5359H1493.33Z" fill="black"/>
<path d="M1510.47 40C1509.4 40 1508.45 39.4199 1507.64 38.2597C1506.84 37.0994 1506.21 35.488 1505.77 33.4254C1505.32 31.337 1505.1 28.9006 1505.1 26.116C1505.1 23.3573 1505.33 20.9208 1505.78 18.8066C1506.24 16.6667 1506.89 15.0037 1507.74 13.8177C1508.6 12.6059 1509.61 12 1510.78 12C1512.11 12 1513.2 12.7606 1514.07 14.2818C1514.95 15.7772 1515.52 17.8656 1515.78 20.547H1513.58C1513.42 19.2063 1513.1 18.1621 1512.62 17.4144C1512.15 16.6667 1511.53 16.2928 1510.77 16.2928C1510 16.2928 1509.33 16.6924 1508.78 17.4917C1508.24 18.2652 1507.82 19.3996 1507.53 20.895C1507.24 22.3646 1507.1 24.1179 1507.1 26.1547C1507.1 28.1915 1507.24 29.9448 1507.53 31.4144C1507.82 32.884 1508.23 34.0055 1508.76 34.779C1509.3 35.5267 1509.92 35.9006 1510.64 35.9006C1511.7 35.9006 1512.5 35.1915 1513.05 33.7735C1513.59 32.3554 1513.91 30.512 1514.01 28.2431H1511.06V24.7238L1515.98 24.7238V39.5359H1514.19L1514.02 35.8232C1513.77 36.6998 1513.49 37.4604 1513.16 38.105C1512.83 38.7238 1512.45 39.2007 1512 39.5359C1511.57 39.8453 1511.06 40 1510.47 40Z" fill="black"/>
<path d="M1526.34 39.5359L1522.16 12.4641H1524.26L1527.53 34.779L1530.85 12.4641L1532.92 12.4641L1528.72 39.5359H1526.34Z" fill="black"/>
<path d="M1532.64 39.5359L1536.81 12.4641H1538.99L1543.16 39.5359H1541.09L1537.88 17.8785L1534.67 39.5359H1532.64ZM1534.49 33.1547L1535.02 29.4807H1540.63L1541.15 33.1547H1534.49Z" fill="black"/>
<path d="M1545.21 39.5359V12.4641L1547.17 12.4641V35.9006H1552.25V39.5359H1545.21Z" fill="black"/>
<path d="M1558.46 40C1557.64 40 1556.89 39.6133 1556.21 38.8398C1555.55 38.0663 1555.02 36.8803 1554.62 35.2818C1554.23 33.6832 1554.03 31.6722 1554.03 29.2486V12.4641L1555.99 12.4641V29.2873C1555.99 30.7569 1556.09 31.9687 1556.3 32.9227C1556.5 33.8766 1556.79 34.5985 1557.16 35.0884C1557.54 35.5525 1557.98 35.7845 1558.49 35.7845C1559.02 35.7845 1559.46 35.5525 1559.83 35.0884C1560.21 34.5985 1560.5 33.8766 1560.69 32.9227C1560.9 31.9687 1561 30.7569 1561 29.2873V12.4641L1562.96 12.4641V29.2486C1562.96 31.6722 1562.76 33.6832 1562.35 35.2818C1561.95 36.8803 1561.41 38.0663 1560.73 38.8398C1560.04 39.6133 1559.29 40 1558.46 40Z" fill="black"/>
<path d="M1565.64 39.5359V12.4641L1573 12.4641V16.2155H1567.59V23.989H1572.51V27.663H1567.59V35.7845H1573V39.5359H1565.64Z" fill="black"/>
<path d="M1623.43 40C1622.6 40 1621.86 39.6133 1621.18 38.8398C1620.52 38.0663 1619.99 36.8803 1619.59 35.2818C1619.2 33.6832 1619 31.6722 1619 29.2486L1619 12.4641H1620.95V29.2873C1620.95 30.7569 1621.06 31.9687 1621.26 32.9227C1621.47 33.8766 1621.76 34.5985 1622.13 35.0884C1622.51 35.5525 1622.95 35.7845 1623.46 35.7845C1623.98 35.7845 1624.43 35.5525 1624.8 35.0884C1625.18 34.5985 1625.46 33.8766 1625.66 32.9227C1625.87 31.9687 1625.97 30.7569 1625.97 29.2873V12.4641H1627.92V29.2486C1627.92 31.6722 1627.72 33.6832 1627.32 35.2818C1626.92 36.8803 1626.38 38.0663 1625.69 38.8398C1625.01 39.6133 1624.25 40 1623.43 40Z" fill="black"/>
<path d="M1630.61 39.5359V12.4641L1632.56 12.4641L1638.05 32.0331V12.4641L1640 12.4641V39.5359H1638.05L1632.56 20.0055V39.5359H1630.61Z" fill="black"/>
<path d="M1642.78 39.5359V12.4641H1644.74V35.9006H1649.82V39.5359H1642.78Z" fill="black"/>
<path d="M1656.37 40C1655.27 40 1654.3 39.4199 1653.46 38.2597C1652.62 37.0737 1651.96 35.4365 1651.49 33.3481C1651.01 31.2339 1650.77 28.7845 1650.77 26C1650.77 23.2413 1651.01 20.8177 1651.49 18.7293C1651.96 16.6151 1652.62 14.965 1653.46 13.779C1654.3 12.593 1655.27 12 1656.37 12C1657.49 12 1658.47 12.593 1659.32 13.779C1660.16 14.965 1660.82 16.6151 1661.29 18.7293C1661.76 20.8177 1661.99 23.2413 1661.99 26C1661.99 28.7845 1661.76 31.2339 1661.29 33.3481C1660.82 35.4365 1660.16 37.0737 1659.32 38.2597C1658.47 39.4199 1657.49 40 1656.37 40ZM1656.39 35.8232C1657.11 35.8232 1657.75 35.4365 1658.29 34.663C1658.84 33.8637 1659.25 32.7293 1659.55 31.2597C1659.84 29.7901 1659.99 28.0368 1659.99 26C1659.99 23.9632 1659.84 22.2099 1659.55 20.7403C1659.25 19.2707 1658.84 18.1492 1658.29 17.3757C1657.75 16.5764 1657.11 16.1768 1656.39 16.1768C1655.66 16.1768 1655.02 16.5764 1654.48 17.3757C1653.94 18.1492 1653.52 19.2707 1653.21 20.7403C1652.92 22.2099 1652.77 23.9632 1652.77 26C1652.77 28.0368 1652.92 29.7901 1653.21 31.2597C1653.52 32.7293 1653.94 33.8637 1654.48 34.663C1655.02 35.4365 1655.66 35.8232 1656.39 35.8232Z" fill="black"/>
<path d="M1669.45 40C1668.32 40 1667.34 39.4199 1666.52 38.2597C1665.71 37.0737 1665.08 35.4365 1664.63 33.3481C1664.2 31.2339 1663.98 28.7974 1663.98 26.0387C1663.98 23.2541 1664.2 20.8177 1664.63 18.7293C1665.08 16.6151 1665.71 14.965 1666.52 13.779C1667.34 12.593 1668.32 12 1669.45 12C1670.81 12 1671.92 12.7993 1672.77 14.3978C1673.63 15.9705 1674.17 18.2007 1674.4 21.0884H1672.25C1672.1 19.5672 1671.79 18.3683 1671.32 17.4917C1670.86 16.6151 1670.23 16.1768 1669.43 16.1768C1668.72 16.1768 1668.1 16.5764 1667.58 17.3757C1667.07 18.1492 1666.67 19.2836 1666.39 20.779C1666.12 22.2486 1665.98 24.0018 1665.98 26.0387C1665.98 28.0755 1666.12 29.8287 1666.39 31.2983C1666.67 32.7422 1667.07 33.8637 1667.58 34.663C1668.1 35.4365 1668.72 35.8232 1669.43 35.8232C1670.23 35.8232 1670.86 35.4236 1671.32 34.6243C1671.79 33.7993 1672.1 32.6648 1672.25 31.221H1674.4C1674.18 33.954 1673.64 36.1068 1672.77 37.6796C1671.92 39.2265 1670.81 40 1669.45 40Z" fill="black"/>
<path d="M1676.8 39.5359V12.4641H1678.76V23.6409L1683.06 12.4641H1685.48L1681.26 23.2155L1685.58 39.5359H1683.2L1679.88 26.7735L1678.76 29.674V39.5359H1676.8Z" fill="black"/>
<path d="M1687.6 39.5359V12.4641L1689.55 12.4641V39.5359H1687.6Z" fill="black"/>
<path d="M1692.33 39.5359V12.4641H1694.28L1699.77 32.0331V12.4641H1701.73V39.5359H1699.77L1694.28 20.0055V39.5359H1692.33Z" fill="black"/>
<path d="M1709.47 40C1708.4 40 1707.45 39.4199 1706.64 38.2597C1705.84 37.0994 1705.21 35.488 1704.77 33.4254C1704.32 31.337 1704.1 28.9006 1704.1 26.116C1704.1 23.3573 1704.33 20.9208 1704.78 18.8066C1705.24 16.6667 1705.89 15.0037 1706.74 13.8177C1707.6 12.6059 1708.61 12 1709.78 12C1711.11 12 1712.2 12.7606 1713.07 14.2818C1713.95 15.7772 1714.52 17.8656 1714.78 20.547H1712.58C1712.42 19.2063 1712.1 18.1621 1711.62 17.4144C1711.15 16.6667 1710.53 16.2928 1709.77 16.2928C1709 16.2928 1708.33 16.6924 1707.78 17.4917C1707.24 18.2652 1706.82 19.3996 1706.53 20.895C1706.24 22.3646 1706.1 24.1179 1706.1 26.1547C1706.1 28.1915 1706.24 29.9448 1706.53 31.4144C1706.82 32.884 1707.23 34.0055 1707.76 34.779C1708.3 35.5267 1708.92 35.9006 1709.64 35.9006C1710.7 35.9006 1711.5 35.1915 1712.05 33.7735C1712.59 32.3554 1712.91 30.512 1713.01 28.2431H1710.06V24.7238L1714.98 24.7238V39.5359H1713.19L1713.02 35.8232C1712.77 36.6998 1712.49 37.4604 1712.16 38.105C1711.83 38.7238 1711.45 39.2007 1711 39.5359C1710.57 39.8453 1710.06 40 1709.47 40Z" fill="black"/>
<path d="M1725.34 39.5359L1721.16 12.4641H1723.26L1726.53 34.779L1729.85 12.4641L1731.92 12.4641L1727.72 39.5359H1725.34Z" fill="black"/>
<path d="M1731.64 39.5359L1735.81 12.4641H1737.99L1742.16 39.5359H1740.09L1736.88 17.8785L1733.67 39.5359H1731.64ZM1733.49 33.1547L1734.02 29.4807H1739.63L1740.15 33.1547H1733.49Z" fill="black"/>
<path d="M1744.21 39.5359V12.4641L1746.17 12.4641V35.9006H1751.25V39.5359H1744.21Z" fill="black"/>
<path d="M1757.46 40C1756.64 40 1755.89 39.6133 1755.21 38.8398C1754.55 38.0663 1754.02 36.8803 1753.62 35.2818C1753.23 33.6832 1753.03 31.6722 1753.03 29.2486V12.4641L1754.99 12.4641V29.2873C1754.99 30.7569 1755.09 31.9687 1755.3 32.9227C1755.5 33.8766 1755.79 34.5985 1756.16 35.0884C1756.54 35.5525 1756.98 35.7845 1757.49 35.7845C1758.02 35.7845 1758.46 35.5525 1758.83 35.0884C1759.21 34.5985 1759.5 33.8766 1759.69 32.9227C1759.9 31.9687 1760 30.7569 1760 29.2873V12.4641L1761.96 12.4641V29.2486C1761.96 31.6722 1761.76 33.6832 1761.35 35.2818C1760.95 36.8803 1760.41 38.0663 1759.73 38.8398C1759.04 39.6133 1758.29 40 1757.46 40Z" fill="black"/>
<path d="M1764.64 39.5359V12.4641L1772 12.4641V16.2155H1766.59V23.989H1771.51V27.663H1766.59V35.7845H1772V39.5359H1764.64Z" fill="black"/>
<path d="M1822.43 40C1821.6 40 1820.86 39.6133 1820.18 38.8398C1819.52 38.0663 1818.99 36.8803 1818.59 35.2818C1818.2 33.6832 1818 31.6722 1818 29.2486L1818 12.4641H1819.95V29.2873C1819.95 30.7569 1820.06 31.9687 1820.26 32.9227C1820.47 33.8766 1820.76 34.5985 1821.13 35.0884C1821.51 35.5525 1821.95 35.7845 1822.46 35.7845C1822.98 35.7845 1823.43 35.5525 1823.8 35.0884C1824.18 34.5985 1824.46 33.8766 1824.66 32.9227C1824.87 31.9687 1824.97 30.7569 1824.97 29.2873V12.4641H1826.92V29.2486C1826.92 31.6722 1826.72 33.6832 1826.32 35.2818C1825.92 36.8803 1825.38 38.0663 1824.69 38.8398C1824.01 39.6133 1823.25 40 1822.43 40Z" fill="black"/>
<path d="M1829.61 39.5359V12.4641L1831.56 12.4641L1837.05 32.0331V12.4641L1839 12.4641V39.5359H1837.05L1831.56 20.0055V39.5359H1829.61Z" fill="black"/>
<path d="M1841.78 39.5359V12.4641H1843.74V35.9006H1848.82V39.5359H1841.78Z" fill="black"/>
<path d="M1855.37 40C1854.27 40 1853.3 39.4199 1852.46 38.2597C1851.62 37.0737 1850.96 35.4365 1850.49 33.3481C1850.01 31.2339 1849.77 28.7845 1849.77 26C1849.77 23.2413 1850.01 20.8177 1850.49 18.7293C1850.96 16.6151 1851.62 14.965 1852.46 13.779C1853.3 12.593 1854.27 12 1855.37 12C1856.49 12 1857.47 12.593 1858.32 13.779C1859.16 14.965 1859.82 16.6151 1860.29 18.7293C1860.76 20.8177 1860.99 23.2413 1860.99 26C1860.99 28.7845 1860.76 31.2339 1860.29 33.3481C1859.82 35.4365 1859.16 37.0737 1858.32 38.2597C1857.47 39.4199 1856.49 40 1855.37 40ZM1855.39 35.8232C1856.11 35.8232 1856.75 35.4365 1857.29 34.663C1857.84 33.8637 1858.25 32.7293 1858.55 31.2597C1858.84 29.7901 1858.99 28.0368 1858.99 26C1858.99 23.9632 1858.84 22.2099 1858.55 20.7403C1858.25 19.2707 1857.84 18.1492 1857.29 17.3757C1856.75 16.5764 1856.11 16.1768 1855.39 16.1768C1854.66 16.1768 1854.02 16.5764 1853.48 17.3757C1852.94 18.1492 1852.52 19.2707 1852.21 20.7403C1851.92 22.2099 1851.77 23.9632 1851.77 26C1851.77 28.0368 1851.92 29.7901 1852.21 31.2597C1852.52 32.7293 1852.94 33.8637 1853.48 34.663C1854.02 35.4365 1854.66 35.8232 1855.39 35.8232Z" fill="black"/>
<path d="M1868.45 40C1867.32 40 1866.34 39.4199 1865.52 38.2597C1864.71 37.0737 1864.08 35.4365 1863.63 33.3481C1863.2 31.2339 1862.98 28.7974 1862.98 26.0387C1862.98 23.2541 1863.2 20.8177 1863.63 18.7293C1864.08 16.6151 1864.71 14.965 1865.52 13.779C1866.34 12.593 1867.32 12 1868.45 12C1869.81 12 1870.92 12.7993 1871.77 14.3978C1872.63 15.9705 1873.17 18.2007 1873.4 21.0884H1871.25C1871.1 19.5672 1870.79 18.3683 1870.32 17.4917C1869.86 16.6151 1869.23 16.1768 1868.43 16.1768C1867.72 16.1768 1867.1 16.5764 1866.58 17.3757C1866.07 18.1492 1865.67 19.2836 1865.39 20.779C1865.12 22.2486 1864.98 24.0018 1864.98 26.0387C1864.98 28.0755 1865.12 29.8287 1865.39 31.2983C1865.67 32.7422 1866.07 33.8637 1866.58 34.663C1867.1 35.4365 1867.72 35.8232 1868.43 35.8232C1869.23 35.8232 1869.86 35.4236 1870.32 34.6243C1870.79 33.7993 1871.1 32.6648 1871.25 31.221H1873.4C1873.18 33.954 1872.64 36.1068 1871.77 37.6796C1870.92 39.2265 1869.81 40 1868.45 40Z" fill="black"/>
<path d="M1875.8 39.5359V12.4641H1877.76V23.6409L1882.06 12.4641H1884.48L1880.26 23.2155L1884.58 39.5359H1882.2L1878.88 26.7735L1877.76 29.674V39.5359H1875.8Z" fill="black"/>
<path d="M1886.6 39.5359V12.4641L1888.55 12.4641V39.5359H1886.6Z" fill="black"/>
<path d="M1891.33 39.5359V12.4641H1893.28L1898.77 32.0331V12.4641H1900.73V39.5359H1898.77L1893.28 20.0055V39.5359H1891.33Z" fill="black"/>
<path d="M1908.47 40C1907.4 40 1906.45 39.4199 1905.64 38.2597C1904.84 37.0994 1904.21 35.488 1903.77 33.4254C1903.32 31.337 1903.1 28.9006 1903.1 26.116C1903.1 23.3573 1903.33 20.9208 1903.78 18.8066C1904.24 16.6667 1904.89 15.0037 1905.74 13.8177C1906.6 12.6059 1907.61 12 1908.78 12C1910.11 12 1911.2 12.7606 1912.07 14.2818C1912.95 15.7772 1913.52 17.8656 1913.78 20.547H1911.58C1911.42 19.2063 1911.1 18.1621 1910.62 17.4144C1910.15 16.6667 1909.53 16.2928 1908.77 16.2928C1908 16.2928 1907.33 16.6924 1906.78 17.4917C1906.24 18.2652 1905.82 19.3996 1905.53 20.895C1905.24 22.3646 1905.1 24.1179 1905.1 26.1547C1905.1 28.1915 1905.24 29.9448 1905.53 31.4144C1905.82 32.884 1906.23 34.0055 1906.76 34.779C1907.3 35.5267 1907.92 35.9006 1908.64 35.9006C1909.7 35.9006 1910.5 35.1915 1911.05 33.7735C1911.59 32.3554 1911.91 30.512 1912.01 28.2431H1909.06V24.7238L1913.98 24.7238V39.5359H1912.19L1912.02 35.8232C1911.77 36.6998 1911.49 37.4604 1911.16 38.105C1910.83 38.7238 1910.45 39.2007 1910 39.5359C1909.57 39.8453 1909.06 40 1908.47 40Z" fill="black"/>
<path d="M1924.34 39.5359L1920.16 12.4641H1922.26L1925.53 34.779L1928.85 12.4641L1930.92 12.4641L1926.72 39.5359H1924.34Z" fill="black"/>
<path d="M1930.64 39.5359L1934.81 12.4641H1936.99L1941.16 39.5359H1939.09L1935.88 17.8785L1932.67 39.5359H1930.64ZM1932.49 33.1547L1933.02 29.4807H1938.63L1939.15 33.1547H1932.49Z" fill="black"/>
<path d="M1943.21 39.5359V12.4641L1945.17 12.4641V35.9006H1950.25V39.5359H1943.21Z" fill="black"/>
<path d="M1956.46 40C1955.64 40 1954.89 39.6133 1954.21 38.8398C1953.55 38.0663 1953.02 36.8803 1952.62 35.2818C1952.23 33.6832 1952.03 31.6722 1952.03 29.2486V12.4641L1953.99 12.4641V29.2873C1953.99 30.7569 1954.09 31.9687 1954.3 32.9227C1954.5 33.8766 1954.79 34.5985 1955.16 35.0884C1955.54 35.5525 1955.98 35.7845 1956.49 35.7845C1957.02 35.7845 1957.46 35.5525 1957.83 35.0884C1958.21 34.5985 1958.5 33.8766 1958.69 32.9227C1958.9 31.9687 1959 30.7569 1959 29.2873V12.4641L1960.96 12.4641V29.2486C1960.96 31.6722 1960.76 33.6832 1960.35 35.2818C1959.95 36.8803 1959.41 38.0663 1958.73 38.8398C1958.04 39.6133 1957.29 40 1956.46 40Z" fill="black"/>
<path d="M1963.64 39.5359V12.4641L1971 12.4641V16.2155H1965.59V23.989H1970.51V27.663H1965.59V35.7845H1971V39.5359H1963.64Z" fill="black"/>
</svg>
